<?xml version="1.0" encoding="utf-8"?>
<!-- Generator: Adobe Illustrator 23.0.4, SVG Export Plug-In . SVG Version: 6.00 Build 0)  -->
<svg version="1.1" id="Layer_1" xmlns="http://www.w3.org/2000/svg" xmlns:xlink="http://www.w3.org/1999/xlink" x="0px" y="0px"
	 viewBox="0 0 680.97 756.57" style="enable-background:new 0 0 680.97 756.57;" xml:space="preserve">
<style type="text/css">
	.st0{fill:#202020;}
</style>
<g>
	<g>
		<path class="st0" d="M420.57,718.24c-3.96,2.87-7.7,5.6-7.7,5.6c0.04,0.05,0.16,0.04,0.24,0.06
			C415.83,721.83,418.27,719.98,420.57,718.24z"/>
		<path class="st0" d="M426.72,710.87c-0.8,0.58-1.62,1.17-2.42,1.76c0.31-0.16,0.38-0.15,0.56-0.21
			C425.44,711.93,426.02,711.45,426.72,710.87z"/>
		<path class="st0" d="M413.11,723.9c1.01,0.15,4.63-1.59,1.14,1.83c-4.26,3.09-12.76,9.27-17.04,12.38
			c-4.03,3.41,0.46,0.63,0.69,0.95c-2.12,1.55-4.25,3.11-5.84,4.27c-1.58,1.18-2.62,1.99-2.56,2.07c-2.48,2.44,2.32-0.63,10.65-6.53
			C417.2,723.78,463.46,689.2,413.11,723.9z"/>
		<path class="st0" d="M446.17,697.95c-7.47,5.43-14.93,10.85-22.41,16.29c-2.07,2.06-4.96,4.72-2.43,3.43
			C432.73,708.96,439.6,703.51,446.17,697.95z"/>
		<path class="st0" d="M311.48,752.5c0.02-0.05,0.16-0.05,0.87,0.13c0.72,0.19,2.01,0.58,4.37,1.33
			C314.88,753.45,313.2,752.98,311.48,752.5c-0.1,0.08,0.15,0.35-2.21-0.43c4.51,1.6,9.39,2.69,14.43,3.55
			c1.26,0.21,2.55,0.29,3.83,0.45c0.64,0.07,1.29,0.14,1.94,0.21c0.65,0.07,1.3,0.14,1.95,0.14c1.31,0.04,2.62,0.08,3.94,0.12
			c0.66,0.01,1.32,0.06,1.98,0.03l1.99-0.09c1.33-0.06,2.66-0.13,4-0.19c1.33-0.16,2.66-0.32,4-0.48c2.69-0.24,5.32-0.91,7.98-1.42
			c0.67-0.12,1.32-0.29,1.97-0.49l1.96-0.55c1.3-0.39,2.63-0.69,3.9-1.17l3.81-1.41c0.63-0.24,1.28-0.45,1.89-0.73l1.84-0.85
			c1.23-0.68,2.44-1.35,3.61-1.99c1.13-0.72,2.19-1.45,3.21-2.14l-2.17,1.21l-1.08,0.61l-1.13,0.52l-4.51,2.07
			c-3.1,1.15-6.17,2.42-9.38,3.21c-3.16,0.99-6.42,1.52-9.65,2.16c-1.64,0.19-3.27,0.39-4.9,0.58l-1.22,0.14l-1.23,0.05l-2.46,0.1
			l-2.45,0.1c-0.82,0.01-1.63-0.05-2.45-0.07c-1.63-0.08-3.27-0.07-4.89-0.23c-1.62-0.18-3.23-0.37-4.85-0.55
			c-0.81-0.07-1.6-0.25-2.4-0.39l-2.38-0.46l-2.38-0.46l-2.33-0.64l-2.33-0.64c-0.77-0.22-1.56-0.4-2.3-0.69
			c-1.51-0.54-3.01-1.08-4.51-1.62c-0.76-0.25-1.48-0.59-2.2-0.92l-2.17-0.98l-2.17-0.98c-0.71-0.34-1.39-0.75-2.09-1.12
			c-1.38-0.76-2.77-1.5-4.13-2.28c-2.59-1.72-5.3-3.4-7.67-5.16c-4.88-3.47-9.69-6.88-14.4-10.23
			c-9.45-6.68-18.57-13.06-27.25-19.05c12.07,8.77,22.3,16.1,32.43,23.34c2.53,1.81,5.05,3.62,7.6,5.44
			c1.28,0.91,2.53,1.83,3.85,2.74c1.37,0.9,2.75,1.81,4.15,2.73C298.14,747.11,304.39,750.19,311.48,752.5z"/>
		<path class="st0" d="M380.44,741.97c1.51-1.01,2.92-1.96,4.42-2.96C380.78,741.53,380.41,741.85,380.44,741.97z"/>
		<path class="st0" d="M92.72,55.54c2.15-8.24,4.19-16.21,6.15-23.99c2.35-9.34,4.64-18.45,6.89-27.41
			c4.94-0.07,9.84-0.14,14.72-0.2c3.32-0.07,6.62-0.15,9.91-0.22c6.58-0.15,13.12-0.3,19.68-0.45c-6.6,0.06-13.22,0.12-19.83,0.17
			c-8.32,0.05-16.64,0.11-24.91,0.16C99.08,27.86,92.9,51.75,87.1,74.22c-5.37,20.9-10.35,40.48-14.66,57.77
			C79.17,106.62,85.93,81.15,92.72,55.54z"/>
		<path class="st0" d="M290.46,0.68c-39.38-0.37-71.85,0.12-102.83,0.79c31.52-0.17,62.84-0.33,94.01-0.5
			C284.56,0.88,287.65,0.77,290.46,0.68z"/>
		<path class="st0" d="M246.77,1.9c-36.04-0.01-66.54,0.66-96.69,1.36C183.97,2.95,217.13,2.54,246.77,1.9z"/>
		<path class="st0" d="M62.03,555.3c7.7,8.24,14.55,14.16,20.12,18.69c1.41,1.12,2.72,2.16,3.96,3.14c1.25,0.95,2.44,1.8,3.53,2.61
			c1.1,0.81,2.11,1.55,3.04,2.24c0.99,0.71,1.91,1.36,2.74,1.95c3.09,1.9,7.16,4.45,12.65,7.92c-1.12-0.81-2.31-1.68-3.41-2.48
			c-2.5-1.76-5-3.53-7.51-5.3l-3.76-2.66l-3.53-2.59c-1.16-0.87-2.36-1.69-3.5-2.61l-3.41-2.73l-1.71-1.37l-1.66-1.43l-3.31-2.87
			c-8.75-7.78-16.74-16.53-23.95-25.96c-5.99-7.65-11.07-15.44-15.05-22.15c3.43,6.38,7.16,12.64,11.36,18.56
			C52.77,544.2,57.21,549.94,62.03,555.3z"/>
		<path class="st0" d="M95.42,583.92c-3.36-2.05-5.19-3.22-6.29-3.85c-1.08-0.62-1.29-0.67-0.92-0.33c0.76,0.68,3.71,2.85,7.06,5.05
			C101.81,589.13,108.4,593.19,95.42,583.92z"/>
		<path class="st0" d="M6.66,467.05c-0.22-1.19-0.44-2.4-0.65-3.6c-0.36-1.72-0.56-3.5-0.85-5.26c-0.26-1.76-0.57-3.52-0.74-5.27
			c0.07,0.61,0.14,1.21,0.2,1.81c0.09,0.6,0.18,1.19,0.27,1.78c0.18,1.18,0.36,2.35,0.53,3.52C5.72,462.39,6.22,464.69,6.66,467.05z
			"/>
		<path class="st0" d="M68.57,182.16c-5.28,20.13-10.51,40.31-15.6,60.17c10.67-40.88,21.44-82.11,29.96-116.36
			c-1.35,5.07-2.9,10.14-4.26,15.22C76.33,151.48,72.65,166.83,68.57,182.16z"/>
		<path class="st0" d="M98.23,598.89c-5.82-4.18-11.68-8.25-17.37-12.55c-5.62-4.38-11.11-8.93-16.21-13.88
			c-10.34-9.74-19.42-20.69-27.4-32.27c-15.76-23.32-26.4-49.69-31.25-76.74c-4.58-27.51-3.38-55.73,3.41-82.17
			c0.43-1.65,0.83-3.31,1.29-4.95l1.45-4.86l0.72-2.43l0.64-2.44l1.28-4.87c1.7-6.49,3.4-12.96,5.09-19.41
			c3.36-12.9,6.7-25.69,10-38.38c13.18-50.76,25.7-99.77,37.25-146.24c4.92-19.95,10.91-43.49,17.44-68.87
			c6.89-26.67,14.28-55.3,21.7-84.03c8.82-0.06,17.66-0.13,26.46-0.19c7.4-0.07,14.78-0.15,22.1-0.22
			c14.63-0.19,29.03-0.38,42.92-0.55c27.78-0.43,53.53-1,75.14-1.8c-9.06-0.08-17.75-0.12-26.12-0.12
			c12.36-0.27,24.02-0.57,34.87-0.93c47.07-0.2,93.84-0.4,140.71-0.59C471.83,0.25,521.41,0.13,571.5,0
			c12.16,45.49,24.56,91.88,37.11,138.87c5.42,20.37,10.05,35.47,15.47,55.82c5.52,20.6,10.95,40.85,16.37,61.03
			c0.06,0.06,0.04-0.2-0.07-0.77c5.65,20.93,11.27,41.77,16.9,62.62c2.82,10.42,5.64,20.84,8.46,31.28
			c1.41,5.22,2.83,10.44,4.24,15.66l0.53,1.96l0.61,1.98l1.22,3.96l0.6,1.99l0.55,2.08l1.1,4.17c5.64,22.3,7.62,45.67,5.59,68.93
			c-1.99,23.26-7.89,46.4-17.63,68.22c-9.19,20.44-21.82,39.35-37.11,55.75c-7.64,8.2-15.95,15.78-24.8,22.65l-3.35,2.53
			c-1.11,0.83-2.26,1.72-3.3,2.46l-6.4,4.64l-12.78,9.28c-12.79,9.29-13.25,8.66-21.9,14.7c-34.66,23.97-60.69,41.92-99.26,69.46
			c0,0-0.23-0.32-0.34-0.47c-5.84,4.33-11.12,8.16-15.48,11.24c17.04-15.09,63.29-49.66,12.94-14.96l0-0.01
			c2.7-2.05,5.13-3.89,7.45-5.65c0.3-0.22,0.55-0.4,0.83-0.6c-0.03,0.02-0.04,0.01-0.06,0.02c11.42-8.71,18.24-14.13,24.84-19.71
			c-7.46,5.42-14.93,10.84-22.41,16.29c1.25-1.25,2.01-2.14,1.08-1.8c0.62-0.51,1.19-0.99,1.88-1.56c3.32-2.41,6.1-4.44,6.1-4.44
			c1-0.91,1.71-1.61,2.16-2.13c19.06-14.89,49.62-37.63,43.22-33.98c-4.8,2.97-18.88,13.65-34.96,25.64
			c-1.02,0.65-2.19,1.41-3.37,2.21c21.2-15.64-0.8-1.11,11.86-10.55c17-12.43,34-24.86,51-37.3c8.67-6.3,17.17-12.49,25.55-18.57
			c4.18-3.05,8.34-6.07,12.46-9.07c4.12-3,8.25-5.97,12.17-9c15.73-12.17,29.25-26.45,40.35-42.35
			c11.09-15.9,19.78-33.42,25.73-52.17c5.94-18.74,9.15-38.73,9.02-59.45c-0.09-3.66-0.11-7.28-0.39-10.9
			c-0.62-10.02-1.99-19.84-4.06-29.42c-0.54-2.39-1.02-4.79-1.68-7.14c-0.65-2.36-1.17-4.72-1.94-7.08
			c-0.7-2.37-1.49-4.69-2.11-7.09c-0.64-2.39-1.28-4.78-1.92-7.16c-5.06-19.1-10.09-38.09-15.21-57.43
			c0.77,2.43,1.58,4.98,2.41,7.58c-8.16-31.13-16.42-62.31-25-93.38c-9.37-33.91-18.74-67.82-28.25-102.21
			c-9.07-33.21-18.27-66.87-27.72-101.45c-7.66,0.03-15.55,0.06-23.49,0.08c-88.31,0.16-173.35,0.57-263,1.22
			c36.64-0.44,73.23-0.83,110.81-0.97c16.87,0,33.68-0.01,50-0.01c-16.92-0.06-33.53-0.05-50,0.01
			c-64.92-0.08-131.61-0.31-181.63,1.52c-5.42-0.16-5.42-0.36-10.66-0.36c-13.94-0.01-27.88-0.01-41.53-0.02
			c-6.82,0.02-13.58,0.03-20.22,0.05c-3.32,0.02-6.62,0.04-9.88,0.06c-1.54,0.03-3.07,0.06-4.58,0.09
			c-1.54,6.33-3.03,12.48-4.47,18.39c0.05,0.01-0.17,0.98-0.5,2.34c-0.33,1.36-0.76,3.13-1.16,4.73c-0.78,3.21-1.36,5.79-0.5,3.29
			c-7.95,30.61-17.45,66.29-25.21,96.93c-3.4,13.27-6.55,26.55-9.63,39.9c-14.06,54.82-28.04,109.33-42.3,164.91
			c-1.78,6.95-3.57,13.91-5.36,20.89c-0.46,1.74-0.88,3.51-1.36,5.22l-1.49,5.1c-0.54,1.72-0.91,3.36-1.33,5.01
			c-0.39,1.66-0.87,3.3-1.2,4.98c-0.69,3.35-1.43,6.69-1.93,10.08c-0.62,3.37-0.98,6.79-1.42,10.19c-0.2,1.71-0.3,3.42-0.46,5.14
			l-0.22,2.57c-0.06,0.86-0.08,1.72-0.13,2.58l-0.23,5.17l-0.03,5.18c0.08,27.65,6.43,55.7,19.04,81.35c1.51,3.21,3.27,6.37,5,9.61
			c1.86,3.16,3.68,6.4,5.76,9.53c4.05,6.32,8.52,12.54,13.44,18.4c4.91,5.86,10.1,11.53,15.63,16.67c1.33,1.34,2.79,2.53,4.17,3.79
			c0.7,0.62,1.39,1.24,2.09,1.86c0.7,0.61,1.43,1.18,2.14,1.78c1.43,1.17,2.83,2.36,4.27,3.49c1.45,1.1,2.9,2.19,4.33,3.28
			c-17.18-12.3-32.5-27.81-44.82-45.79c-12.24-18.02-21.5-38.45-26.83-60.11c-4.87-21.09-5.94-42.48-3.9-62.39
			c1-9.96,2.76-19.56,5.06-28.64c0.5-2.25,1.25-4.61,1.88-6.89c0.68-2.27,1.24-4.6,1.8-6.92c1.11-4.62,2.2-9.13,3.26-13.52
			c2-8.17,3.98-16.3,5.97-24.47c-3.17,12.32-6.33,24.62-9.48,36.88l-1.18,4.6c-0.41,1.52-0.87,2.99-1.3,4.49
			c-0.42,1.48-0.92,3-1.27,4.45l-1.09,4.36l-0.54,2.18l-0.45,2.2l-0.91,4.39c-0.29,1.47-0.5,2.95-0.76,4.42
			c-0.23,1.48-0.53,2.94-0.7,4.42c-1.63,11.82-2.15,23.74-1.57,35.56c0.64,11.81,2.41,23.5,5.18,34.88
			c1.49,6.21,3.17,12.42,5.32,18.5c0.99,3.07,2.2,6.07,3.36,9.08c0.56,1.52,1.26,2.98,1.88,4.47c0.65,1.48,1.25,2.99,1.97,4.44
			l2.09,4.38c0.69,1.47,1.49,2.87,2.23,4.31c1.46,2.89,3.14,5.66,4.75,8.47c3.37,5.51,6.89,10.93,10.81,16.02
			c-0.32-0.41-0.62-0.78-0.96-1.21c-12.19-16.04-21.91-34.25-28.39-53.76c-5.87-18.43-8.75-37.37-8.96-55.48
			c-0.22-18.11,2.04-35.37,5.92-50.89c0.41-1.92,1.03-3.93,1.55-5.87c0.54-1.95,1.08-3.87,1.52-5.83
			c1.99-8.14,3.98-16.31,5.97-24.46c-1.95,7.6-3.91,15.18-5.85,22.76c-0.93,3.83-2.06,7.48-3.14,11.17l-1.37,5.43
			c-0.48,1.8-0.85,3.63-1.22,5.45c-0.35,1.83-0.81,3.63-1.08,5.47l-0.91,5.5c-0.27,1.84-0.47,3.68-0.71,5.52
			c-0.11,0.92-0.25,1.84-0.33,2.76l-0.23,2.77c-0.13,1.85-0.37,3.68-0.42,5.53l-0.25,5.54c-0.06,1.85-0.03,3.69-0.06,5.53
			c0,0.92-0.03,1.84,0,2.76l0.09,2.76c0.55,18.27,3.76,36.42,9.5,53.56c3.43,10.83,7.95,21.47,13.34,31.61
			c-0.61-1.05-1.27-2.16-1.82-3.11c-2.37-4.43-7.03-12.8-9.82-18.65c-0.76-1.43-1.39-2.71-1.9-3.7c-0.52-0.98-0.93-1.67-1.18-1.94
			c-0.51-0.55-0.4,0.55,0.71,4.21c3.38,9.2,7.67,18.6,12.86,27.75c5.18,9.15,11.25,18.04,18,26.3c6.74,8.27,14.15,15.9,21.86,22.66
			c0.97,0.84,1.9,1.72,2.89,2.52c0.99,0.8,1.97,1.6,2.95,2.4c0.98,0.79,1.93,1.61,2.93,2.36c1,0.75,1.99,1.49,2.98,2.23
			c0.99,0.74,1.97,1.47,2.95,2.2c1.02,0.74,2.04,1.47,3.05,2.19c2.02,1.45,4.01,2.88,5.97,4.29c15.67,11.26,29.29,21.03,38.99,28
			c4.84,3.49,8.71,6.27,11.36,8.18c1.32,0.96,2.34,1.7,3.03,2.21c0.34,0.25,0.6,0.45,0.78,0.58c0.17,0.13,0.26,0.21,0.26,0.21
			c1.89,1.86-25.43-17.43-52.7-36.78c-3.41-2.42-6.82-4.84-10.17-7.22c-1.71-1.19-3.23-2.36-4.82-3.53
			c-1.57-1.16-3.13-2.29-4.58-3.51c-1.47-1.19-2.92-2.35-4.33-3.49c-1.37-1.19-2.7-2.36-4-3.49c-1.32-1.11-2.53-2.26-3.69-3.37
			c-1.17-1.11-2.3-2.17-3.38-3.19c-2.07-2.12-3.96-4.05-5.6-5.73c-1.58-1.74-2.93-3.23-4-4.42c-2.14-2.38-3.09-3.61-2.72-3.09
			c4.76,5.89,9.83,11.57,15.29,16.81c-5.37-4.81-10.2-9.97-14.58-14.77c-5.06-5.83-10.41-13.1-14.93-20.14
			c-2.31-3.49-4.29-7-6.16-10.11c-0.87-1.59-1.7-3.09-2.46-4.48c-0.39-0.69-0.76-1.35-1.11-1.98c-0.34-0.64-0.65-1.25-0.95-1.82
			c-4.26-7.95-8.04-16.56-11.15-25.67c-3.1-9.11-5.55-18.71-7.24-28.6c-3.4-19.8-3.7-40.78-0.83-61.37
			c0.25-1.61,0.49-3.24,0.74-4.89c0.13-0.82,0.25-1.65,0.38-2.49c0.16-0.83,0.32-1.66,0.48-2.5c0.32-1.67,0.65-3.37,0.98-5.07
			c0.4-1.69,0.8-3.4,1.2-5.13c0.2-0.86,0.41-1.73,0.61-2.6c0.24-0.87,0.48-1.74,0.72-2.61c0.48-1.75,0.97-3.51,1.46-5.29
			c0.87-3.59,1.74-7.24,2.63-10.92c3.54-14.74,7.23-30.11,10.92-45.48c-0.37-0.11,3.89-15.36,2.15-10.36
			c7.65-28.73,16.5-61.97,18.68-74.59c0.18-0.7,0.35-1.4,0.53-2.09c0.54-2.02,1.24-4.92,1.98-8.02
			c12.92-47.74,20.76-81.39,31.57-124.91c3.87-14.93,7.84-30.1,12-45.7c-2.71,10.19-6.96,25.39-9.49,35.65
			c-0.85,3.39-1.68,6.75-2.51,10.05c-10.04,38.7-19.33,75.62-28.7,112.46c-0.7,3.03-1.82,7.9-2.87,12.45
			c-0.72,2.65-1.44,5.29-2.17,7.97c-0.09,0.66-0.21,1.38-0.34,2.15c-8.82,35.29-19.21,75.1-26.63,105.21
			c-1.81,7.08-3.64,14.22-5.49,21.4c-1.89,7.17-3.62,14.44-5.87,21.58c-4,14.42-6.52,29.4-7.21,44.53
			c-0.33,7.56-0.35,15.15,0.21,22.71c0.52,7.55,1.39,15.09,2.8,22.52l0.5,2.79l0.6,2.77c0.42,1.84,0.78,3.69,1.24,5.52l1.42,5.47
			c0.45,1.83,1.06,3.61,1.58,5.41l0.81,2.7c0.28,0.9,0.6,1.78,0.9,2.66c0.62,1.77,1.2,3.55,1.84,5.31
			c1.36,3.49,2.66,6.99,4.19,10.38C9.67,482.57,3.79,453.15,4.37,424.32c-0.39,18.06,1.7,35.61,5.8,52.23
			c4.21,16.59,10.31,32.3,18.25,46.71c0.6,1.12,1.19,2.24,1.78,3.36c0.63,1.09,1.27,2.18,1.9,3.27l1.89,3.26l2.02,3.18
			c5.64,8.89,12,17.33,19,25.21c-6.47-7.41-12.33-15.22-17.57-23.36c10.9,16.32,24.12,30.73,38.85,42.75l3.83,3.1
			c1.27,1.03,2.62,1.98,3.93,2.97c2.61,1.98,5.32,3.9,8.02,5.82c5.39,3.85,10.79,7.71,16.2,11.58c10.81,7.74,21.66,15.51,32.53,23.3
			c21.72,15.61,43.54,31.3,65.39,47.01c21.81,15.77,43.65,31.57,65.45,47.34c5.44,3.95,10.88,7.9,16.32,11.85
			c1.36,0.97,2.72,2.02,4.08,2.91l4.07,2.72c1.39,0.85,2.84,1.6,4.25,2.41c1.4,0.85,2.9,1.48,4.38,2.16
			c5.92,2.71,12.16,4.76,18.58,5.84c6.4,1.12,12.94,1.53,19.42,1.09c-1.01,0.15-2.1,0.31-3.26,0.48c-1.16,0.15-2.4,0.38-3.71,0.4
			l-4.74-0.17l-4.71-0.53c-1.58-0.12-3.11-0.52-4.67-0.79l-2.32-0.45c-0.78-0.14-1.52-0.4-2.29-0.6
			c-6.13-1.49-11.98-3.95-17.49-6.88c-1.36-0.78-2.76-1.47-4.07-2.31c-1.3-0.86-2.6-1.72-3.89-2.58c-2.58-1.76-5.13-3.67-7.68-5.48
			c-5.1-3.67-10.15-7.3-15.14-10.89c-19.98-14.34-39.09-27.9-56.45-39.87c24.07,17.49,40.91,29.3,64.16,46.14
			c-0.09,0.08,0.04,0.37-1.94-0.98c3.74,2.66,7.64,5.42,11.66,8.27c2.01,1.41,4.02,2.91,6.13,4.24c1.05,0.68,2.1,1.37,3.15,2.06
			c1.1,0.62,2.22,1.22,3.33,1.83c2.19,1.3,4.57,2.26,6.91,3.33c1.16,0.57,2.39,0.95,3.6,1.39c1.22,0.43,2.43,0.89,3.66,1.29
			l3.75,1.02l1.87,0.51c0.63,0.14,1.27,0.25,1.91,0.38l3.81,0.73c1.27,0.22,2.56,0.31,3.84,0.47c-6.6-0.23-14.08-1.36-21.23-3.77
			c-4.96-1.9-11.07-4.68-17.06-8.93c-5.91-4.2-12.36-8.78-18.81-13.36c-55.52-39.92-107.59-77.87-162.35-117.08
			c-6.06-4.41-12.12-8.83-18.17-13.24c-6.06-4.35-12.13-8.95-17.88-13.83c-5.68-4.98-11.16-10.18-16.28-15.72
			c-1.31-1.36-2.51-2.81-3.77-4.22l-1.87-2.12c-0.62-0.71-1.2-1.46-1.79-2.18l-3.55-4.39l-3.39-4.52
			c-17.83-24.26-29.92-52.46-35.33-81.63l0.52,2.71l0.61,2.68c0.42,1.78,0.81,3.57,1.25,5.34c0.97,3.51,1.85,7.03,2.99,10.46
			c2.1,6.9,4.68,13.58,7.48,20.08c0.72,1.62,1.44,3.23,2.16,4.84c0.75,1.59,1.55,3.16,2.32,4.73l1.17,2.36l1.25,2.31
			c0.83,1.53,1.67,3.06,2.5,4.59c0.89,1.49,1.78,2.99,2.66,4.47l1.33,2.23l1.41,2.17c0.94,1.45,1.88,2.89,2.82,4.33
			c0.99,1.4,1.98,2.8,2.97,4.2l1.48,2.09l1.56,2.03c1.04,1.35,2.08,2.7,3.11,4.05c1.09,1.31,2.17,2.61,3.25,3.91l1.62,1.95
			l1.69,1.89c1.13,1.25,2.26,2.5,3.39,3.75c1.15,1.23,2.34,2.41,3.51,3.61c2.3,2.44,4.79,4.67,7.2,6.97c1.2,1.16,2.49,2.2,3.73,3.31
			c1.26,1.08,2.48,2.21,3.78,3.24c2.6,2.05,5.11,4.2,7.8,6.11l3.97,2.93l4.02,2.84C92.89,595.12,95.56,597,98.23,598.89z
			 M542.04,629.77c4.32-3.25,8.78-6.61,13.24-9.97c-0.73,0.47-1.43,0.92-2.1,1.36C549.05,624.16,545.07,627.28,542.04,629.77z
			 M636.29,548.83c-5.5,7.48-11.89,15.22-19.23,22.78c-7.34,7.56-15.62,14.95-24.73,21.77c-17.86,13.17-36.72,27.08-55.25,40.75
			c-0.18,0.2-0.28,0.33-0.25,0.37c15.67-11.27,33.04-23.98,50.93-37.15c1.12-0.82,2.24-1.65,3.36-2.48
			c1.14-0.87,2.28-1.75,3.42-2.62c1.13-0.88,2.29-1.74,3.41-2.65l3.32-2.77c2.25-1.81,4.38-3.78,6.52-5.72c2.18-1.9,4.2-3.99,6.28-6
			C622.27,566.94,629.76,558.08,636.29,548.83z M677.09,408.05c0.01,0.29,0.02,0.61,0.02,0.91c0.03-0.03,0.05-0.09,0.08-0.09
			C677.16,408.61,677.13,408.34,677.09,408.05z M334,7.16c42.14-0.98,94.85-0.98,147.52-1.37c15.81,0,31.57-0.78,52.66-0.78
			c13.23-0.13,24.13-0.24,33.72-0.34c3.57,12.78,6.65,23.83,10.23,36.7l-3.69-15.39c9.3,35.69,15.86,55.74,24.96,91.44
			c0.09-0.03,0.57,1.2,1.2,3.08c0.63,1.87,1.4,4.39,2.08,6.94c6.96,25.37,13.37,50.96,19.16,71.19
			c6.96,25.38,13.73,50.8,19.53,71.06c1.36,5.11,4.63,15.09,7.53,25.23c3.36,12.39,6.73,24.8,10.09,37.19
			c-0.09-0.57-0.18-1.1-0.26-1.57c-2.68-10.11-5.44-20.36-8.29-30.57c-8.51-30.44-18.37-65.93-26.68-96.39
			c-9.3-33.97-18.32-66.92-27.19-99.29c-9.4-34.03-18.64-67.44-27.83-100.7c-9.88,0.09-19.57,0.17-29.27,0.25
			c-15.79,0.26-31.63,0.52-47.41,0.78C444.64,5.4,386.68,5.2,355.11,6.57C349.82,6.77,339.29,6.77,334,7.16z M275.11,15.64
			c55.54-0.83,117.1-1.21,169.54-1.05c13.37,0,34.68-0.12,56.86-0.35c11.09-0.15,22.4-0.3,33.05-0.44c5.32-0.1,10.48-0.2,15.36-0.29
			c2.18-0.06,4.31-0.11,6.36-0.16c1.77-0.06,3.48-0.12,5.11-0.17c1.21,3.88,2.28,7.36,3.19,10.29c1.1,3.54,2.04,6.41,2.77,8.46
			c1.45,4.09,2.06,4.86,1.48,1.02c-0.9-2.53-1.94-5.69-3.12-9.41c-1.03-3.33-2.21-7.15-3.52-11.4c-2.3,0.07-4.72,0.14-7.25,0.21
			c-2.91,0.06-5.95,0.12-9.11,0.18c-6.45,0.09-13.38,0.19-20.69,0.29c-14.62,0.16-30.74,0.26-47.57,0.32
			c-33.66,0.05-70.1,0.1-102.83,0.15C309.25,13.36,258.68,13.63,275.11,15.64z M48.37,278.31c5.39-21.42,10.62-42.13,17.07-66.38
			C59.75,234.06,54.07,256.17,48.37,278.31z M98.47,59.23c-16.3,66.53-35.09,137.85-51.97,204.26
			c-6.5,25.55-13.72,52.26-20.66,78.36c-1.73,6.53-3.45,13.01-5.15,19.43c-0.84,3.21-1.68,6.4-2.51,9.58
			c-0.46,1.56-0.92,3.12-1.38,4.67c-0.46,1.55-0.93,3.1-1.29,4.64c-3.19,12.27-5.01,24.47-5.56,36.05l0.59,0.04l0.29-5.11
			c1-8.97,2.53-16.99,4.39-24.54c0.49-1.88,1.02-3.73,1.52-5.57c0.47-1.83,1.06-3.67,1.65-5.49c0.57-1.84,1.2-3.62,1.7-5.49
			c0.52-1.86,1.04-3.71,1.56-5.58c-0.21,0.86-0.44,1.78-0.65,2.63c0.39-1.5,0.78-3.01,1.17-4.53c2.76-9.98,5.55-20.34,8.59-32.35
			c1.37-5.51,2.77-11.11,4.18-16.74c16.62-63.76,33.82-129.53,47.99-187.51c8.93-35.8,16.11-66.59,25.04-102.38
			C105.26,33.74,100.99,48.99,98.47,59.23z"/>
		<path class="st0" d="M31.96,529.12c11.56,19.54,26.53,37.23,44.33,51.81c1.74,1.37,3.44,2.8,5.21,4.12l5.34,3.93
			c3.63,2.56,7.26,5.13,10.89,7.68c7.26,5.11,14.51,10.21,21.75,15.3c34.52,24.43,71.71,51.23,109.49,78.56
			c18.89,13.67,37.93,27.45,56.86,41.14l3.55,2.57c1.18,0.86,2.37,1.73,3.53,2.47l3.51,2.33c1.19,0.74,2.45,1.37,3.66,2.06
			l1.84,1.02c0.62,0.33,1.27,0.59,1.9,0.89l3.82,1.73l3.94,1.43c0.66,0.23,1.31,0.48,1.97,0.7l2.01,0.55
			c1.35,0.36,2.68,0.76,4.03,1.08l4.09,0.78c1.35,0.31,2.74,0.42,4.11,0.58l2.06,0.23c0.69,0.08,1.37,0.17,2.06,0.17l4.13,0.14
			l1.03,0.03l1.03-0.05l2.06-0.09c2.75-0.02,5.46-0.46,8.17-0.77c1.24-0.44,1.88-0.93,1.83-1.2c-0.02-0.15-0.22-0.26-0.61-0.33
			c-0.38-0.07-0.96-0.1-1.75-0.19l-4.32,0.47c-1.44,0.15-2.89,0.12-4.34,0.19l-2.17,0.07l-2.17-0.1c-1.44-0.09-2.89-0.06-4.33-0.24
			c-5.77-0.51-11.43-1.81-16.94-3.53c-5.49-1.83-10.71-4.35-15.69-7.27l-3.6-2.41c-0.61-0.42-1.19-0.77-1.82-1.23l-1.87-1.36
			l-7.48-5.44l-59.93-43.37c-39.98-28.87-79.98-57.71-119.76-86.82c-0.63-0.43-1.28-0.88-1.91-1.31c-4.33-2.98-9.07-6.22-13.89-9.68
			c-2.36-1.75-4.85-3.47-7.23-5.45c-1.21-0.97-2.43-1.94-3.66-2.93c-1.19-1.04-2.4-2.09-3.61-3.14c-9.74-8.46-19.15-18.77-27.6-30.2
			c-4.13-5.78-8.13-11.76-11.68-18.02c-3.52-6.27-6.87-12.65-9.65-19.2c-0.36-0.81-0.74-1.62-1.07-2.44l-0.99-2.47
			c-0.65-1.65-1.34-3.27-1.94-4.91c-1.17-3.31-2.4-6.56-3.39-9.86c-1.09-3.26-1.96-6.55-2.86-9.78c-0.47-1.61-0.8-3.24-1.2-4.84
			c-0.36-1.61-0.81-3.19-1.1-4.78c-5.51-25.36-5.77-51.96-0.64-77.58l0.98-4.8l1.17-4.76c0.72-3.18,1.73-6.32,2.61-9.49
			c1.67-6.37,3.23-12.77,4.85-19.16l9.54-38.35c-4.88,18.4-9.7,36.57-14.48,54.6c-1.2,4.51-2.75,8.91-3.8,13.43l-0.87,3.37
			l-0.74,3.4c-0.48,2.27-1.01,4.52-1.37,6.81c-1.66,9.1-2.71,18.29-3.04,27.51c-0.69,18.42,1.18,36.9,5.54,54.84
			C15.75,495.49,22.7,512.86,31.96,529.12z"/>
		<path class="st0" d="M187.63,1.47C167,1.59,146.27,1.71,125.36,1.83c-7.43,0.04-14.78,0.09-21.27,0.13
			c-2.19,8.44-4.35,16.77-6.48,25.01c-1.59,6.2-3.16,12.34-4.72,18.42c-3.1,12.16-6.14,24.09-9.15,35.88
			c-5.97,23.6-11.81,46.67-17.71,69.97C75.93,113.8,85.9,76.15,95.94,38.21c3.12-12.17,6.12-23.83,9.02-35.11
			c5.2-0.06,10.35-0.11,15.45-0.16c3.29-0.06,6.55-0.12,9.79-0.18c6.48-0.14,12.88-0.28,19.24-0.41
			C162.17,2.05,174.77,1.76,187.63,1.47z"/>
		<path class="st0" d="M55.57,192.76c3.53-14.04,6.99-27.8,10.45-41.53c-14.57,55.54-29.02,110.65-43.45,165.65l-8.74,33.96
			l-4.37,16.98l-2.47,8.5c-0.71,2.92-1.51,5.82-2.14,8.75c-5.18,23.46-6.28,47.82-2.95,71.55c6.45,47.51,30.45,92.31,66.43,123.55
			l3.05,2.67c1.03,0.87,2.09,1.7,3.14,2.55l3.14,2.54c1.06,0.83,2.15,1.61,3.22,2.42l3.22,2.4l3.21,2.31
			c2.14,1.53,4.27,3.06,6.4,4.58c-4.4-3.23-8.79-6.33-13.19-9.73c-2.23-1.64-4.34-3.42-6.47-5.18c-2.16-1.72-4.19-3.6-6.25-5.44
			c-8.18-7.42-15.74-15.51-22.58-24.15c-13.7-17.27-24.4-36.81-31.69-57.42c-7.3-20.61-11.19-42.3-11.55-63.9
			c-0.18-10.8,0.51-21.57,2.05-32.18c0.77-5.3,1.76-10.56,2.93-15.77c0.26-1.31,0.6-2.6,0.93-3.89l0.99-3.87
			c0.31-1.3,0.69-2.56,1.08-3.82l1.13-3.78c0.39-1.26,0.74-2.52,1.06-3.78l1-3.78c0.66-2.52,1.32-5.04,1.99-7.55
			c1.32-5.03,2.64-10.04,3.95-15.04c2.62-10,5.22-19.95,7.8-29.83c5.13-19.78,10.2-39.32,15.19-58.56
			c9.92-38.5,19.4-75.85,28.3-111.68c0.65-2.63,1.38-5.56,2.07-8.34c-17.85,67.97-35.5,135.21-53.11,202.25
			C31.42,287.06,43.5,239.9,55.57,192.76z"/>
		<path class="st0" d="M21.85,509.59c0.51,1.17,1.02,2.33,1.52,3.49c0.55,1.14,1.1,2.28,1.64,3.42l1.64,3.41l1.77,3.34
			c0.71,1.29,1.38,2.59,2.13,3.84c0.75,1.25,1.49,2.5,2.24,3.75c1.44,2.52,3.09,4.89,4.65,7.32c-0.94-1.5-1.88-3-2.82-4.5
			c-0.93-1.5-1.77-3.05-2.66-4.56l-1.41-2.37c-0.46-0.79-0.89-1.61-1.33-2.42c-0.88-1.62-1.75-3.23-2.62-4.84
			C24.98,516.19,23.28,512.95,21.85,509.59z"/>
		<path class="st0" d="M21.64,364.46c0.17-0.62,0.35-1.25,0.53-1.9c4.19-16.12,8.46-32.53,12.76-49.09
			c5.73-22.88,11.78-46.77,18.03-71.15C41.44,286.46,30.05,330.12,21.64,364.46z"/>
		<path class="st0" d="M63.75,224.58c1.36-5.1,4.06-15.26,5.43-20.39c0.71-3.13,1.42-6.23,2.13-9.36
			c-1.28,4.76-2.58,9.58-3.87,14.38L63.75,224.58z"/>
		<path class="st0" d="M202.47,17.1c-16.05,0.13-31.92,0.27-47.34,0.4c-7.71,0.07-15.31,0.13-22.77,0.2
			c-3.73,0.03-7.42,0.07-11.07,0.1c-0.6,0.01-1.2,0.02-1.8,0.03l-1.07,0.03c-0.7,0.02-1.39,0.03-2.08,0.05
			c-14.77,57.58-28.53,111.25-42.21,164.6c-0.94,4.11-1.88,8.23-2.82,12.33c15.11-56.27,29.78-112.34,42.49-164.24
			c0.63-2.6,1.34-5.54,2.09-8.64c0.23-1.2,0.47-2.46,0.72-3.72c1.12-0.08,2.3-0.16,3.48-0.22c2.95-0.06,5.94-0.09,8.5-0.09
			c49.87-0.19,97.36-0.81,144.72-1.37c-22.64,0.18-45.51,0.36-68.88,0.54C203.76,17.09,203.12,17.1,202.47,17.1z"/>
	</g>
	<g>
		<path class="st0" d="M626.67,533.02c1.13,0.74,2.21,1.44,2.21,1.44c0.03-0.05,0.05-0.12,0.07-0.19
			C628.11,533.81,627.37,533.4,626.67,533.02z"/>
		<path class="st0" d="M623.22,533.58c0.23,0.15,0.46,0.3,0.7,0.45c-0.05-0.1-0.03-0.15-0.05-0.22
			C623.67,533.74,623.46,533.67,623.22,533.58z"/>
		<path class="st0" d="M628.95,534.27c0.22-0.71-0.3-1.91,1.21-1.78c1.22,0.79,3.66,2.38,4.89,3.18c1.43,0.47,0.43-0.65,0.64-0.98
			c1.22,0.8,2.44,1.59,2.55,1.43c1.08,0.09-0.06-1.06-2.36-2.7C629.42,531.83,615.59,523.75,628.95,534.27z"/>
		<path class="st0" d="M618.35,529.23c2.14,1.4,4.28,2.79,6.43,4.19c0.91,0.06,2.06,0.27,1.66-0.53
			C622.93,531,620.69,529.99,618.35,529.23z"/>
		<path class="st0" d="M649.85,427.24c0.07-0.1,0.21-0.08,1.22,0.79C650.65,427.75,650.26,427.5,649.85,427.24
			c-0.08,0.08-0.1,0.27-0.69-0.03c4.38,2.59,9.47,5.65,14.33,8.75c0.74,0.24,1.46,0.46,2.13,0.64
			c-12.02-7.69-23.97-15.48-34.33-20.99C638.22,420.12,643.17,422.93,649.85,427.24z"/>
		<path class="st0" d="M667.21,436.21c0.42,0.27,0.81,0.52,1.22,0.79C667.43,436.14,667.28,436.12,667.21,436.21z"/>
		<path class="st0" d="M459.91,332.74c-6.71,5.71-12.27,11.12-17.9,16.57c6.27-5.44,12.62-10.94,18.59-16.13
			c2.98-2.6,5.86-5.13,8.6-7.52c1.36-1.21,2.68-2.39,3.96-3.52c0.29-0.27,0.58-0.53,0.87-0.79l0.5-0.49
			c0.34-0.33,0.67-0.66,0.99-0.98c-2.37,1.96-4.74,3.93-7.12,5.9C465.57,328.09,462.74,330.41,459.91,332.74z"/>
		<path class="st0" d="M413.54,375.91c8.67-6.62,15.33-12.68,21.55-18.63c-6.65,5.65-13.26,11.27-19.84,16.85
			C414.68,374.72,414.09,375.34,413.54,375.91z"/>
		<path class="st0" d="M422.14,367.31c7.73-6.31,13.85-12.17,19.87-17.99C434.94,355.49,428.09,361.62,422.14,367.31z"/>
		<path class="st0" d="M582.63,368.33c5.81,3.11,9.27,5.07,11.2,6.25c0.99,0.32,2.28,0.76,4.01,1.39c-0.32-0.21-0.66-0.43-0.98-0.64
			c-5.87-3.4-11.8-6.89-17.78-10.43c-2.51-1.34-4.93-2.6-7.01-3.57C575.6,363.67,579.13,366.01,582.63,368.33z"/>
		<path class="st0" d="M593.83,374.58C585.4,371.88,601.37,379.2,593.83,374.58L593.83,374.58z"/>
		<path class="st0" d="M551.58,361.71c-0.28-0.18-0.56-0.36-0.84-0.55c-0.83-0.49-1.69-0.99-2.52-1.48
			C549.36,360.37,550.45,361.03,551.58,361.71z"/>
		<path class="st0" d="M486.36,312.6c2.51,1.57,5.02,3.14,7.51,4.7c2.45,1.5,4.89,2.99,7.31,4.47c-3.72-2.32-7.46-4.66-11.11-6.94
			c-4.42-2.73-8.73-5.39-12.84-7.92c-2.63,2.28-5.11,4.47-7.4,6.52c1.42-1.16,2.91-2.12,4.29-3.26c0.87-0.87,1.91-1.89,3.12-3.02
			C479.85,308.57,483.12,310.49,486.36,312.6z"/>
		<path class="st0" d="M590.69,385.02c-13.56-8.24-26.94-16.22-39.95-23.86c-12.84-8.33-25.51-16.42-37.85-24.07
			c-6.17-3.83-12.26-7.54-18.25-11.13c-3-1.78-5.97-3.53-8.91-5.27c-0.74-0.43-1.47-0.86-2.2-1.28c-0.55-0.31-1.11-0.62-1.66-0.92
			c-1-0.54-2-1.08-2.99-1.61c-0.36-0.19-0.73-0.38-1.13-0.59c-0.74,0.71-1.52,1.45-2.32,2.21c-0.39,0.36-0.78,0.73-1.17,1.1
			l-0.59,0.55l-0.3,0.28l-0.39,0.35c-2.54,2.22-5.21,4.57-7.98,6.99c-5.56,4.81-11.48,9.94-17.38,15.05
			c-11.77,10.25-23.33,20.59-31.16,28.95c2-1.52,3.88-3.02,5.68-4.48c-2.48,2.37-4.79,4.65-6.89,6.83
			c-1.73,1.46-3.45,2.92-5.18,4.38l-2.42,2.05l-0.59,0.56l-2.16,2.03l2.21,1.26l1.02,0.58l4.22,2.67
			c6.18,3.95,12.38,7.9,18.59,11.86c12.41,7.95,24.87,16,37.48,24.22c4.89,3.19,8.88,5.08,13.77,8.27
			c4.97,3.19,9.86,6.34,14.73,9.47c0.04-0.03,0-0.1-0.11-0.22c20.27,12.91,40.28,25.49,61.48,38.54
			c9.88,6.21,19.56,12.75,29.33,19.11c3.67,2.39,3.24,3.04,5.58,4.8c9.24,7.19,16.14,12.62,26.92,20.11c0,0-0.21,0.33-0.32,0.49
			c1.72,1.04,3.23,2.03,4.44,2.89c-6.45-1.59-20.27-9.66-6.92,0.85l0,0.01c-0.82-0.45-1.57-0.86-2.27-1.25
			c-0.08-0.06-0.16-0.1-0.24-0.15c0,0.01,0,0.02,0,0.03c-3.51-1.89-5.74-2.89-8.08-3.66c2.14,1.39,4.28,2.79,6.43,4.19
			c-0.55-0.03-0.97,0.02-0.9,0.4c-0.21-0.08-0.41-0.15-0.65-0.24c-0.95-0.62-1.75-1.14-1.75-1.14c-0.39-0.08-0.71-0.1-0.94-0.07
			c-6.07-2.95-15.14-8.34-13.89-6.55c1.08,1.2,5.37,3.57,10.16,6.39c0.24,0.24,0.53,0.51,0.83,0.77c-6.22-3.82-0.75,1.15-4.52-1.08
			c-4.89-3.18-9.88-6.2-14.76-9.38c-19.9-12.97-36.77-23.73-56.64-35.98c-0.88-0.54-1.74-1.08-2.61-1.62
			c-9.61-5.97-18.58-11.77-27.77-17.94c0.67,0.27,1.35,0.57,2.05,0.88c-7.4-4.97-14.85-9.88-22.49-14.5
			c-18.76-11.29-37.51-22.58-57.16-35.15c-6.17-3.94-12.27-7.83-18.36-11.71c-8.25-5.24-16.49-10.48-24.8-15.75
			c5.31-4.47,10.66-8.98,16.06-13.52c2.17-1.85,4.35-3.71,6.54-5.57c1.87-1.61,3.75-3.23,5.64-4.85l-5.45,4.84l-2.73,2.42l-3.59,3.1
			c-5.37,4.6-10.64,9.08-16.01,13.56c0.53,0.34,1.08,0.69,1.62,1.04c5.54,3.63,11.1,7.27,16.52,10.76
			c-5.54-3.69-10.99-7.22-16.52-10.76c-0.53-0.35-1.05-0.69-1.58-1.04c4.85-3.94,9.72-7.91,14.54-11.82
			c2.12-1.74,4.22-3.47,6.31-5.18c1.64-1.38,3.26-2.74,4.86-4.09c6.36-5.42,12.19-10.7,16.85-15.67c1.26-0.82,1.39-0.67,2.51-1.59
			c7.91-6.46,15.94-12.77,22.21-18.91c-0.12-0.15,3.27-2.93,1.89-2.3c3.34-2.82,6.97-5.88,10.59-8.94
			c4.62-3.93,9.23-7.87,13.49-11.5c1.4-1.19,2.79-2.4,4.2-3.65c3.75,2.23,7.6,4.4,11.67,6.66c27,16.39,53.7,32.6,82.8,50.26
			c7.12,4.42,15.23,9.69,22.34,14.32c-10.82-6.27-21.89-12.84-33.1-19.56c-10.54-7.04-20.7-13.66-29.62-18.27
			c-2.05-1.12-4.08-2.24-6.12-3.36c12.03,7.32,23.97,14.57,35.74,21.64c6.22,4.16,12.57,8.45,18.86,12.56
			c-0.14-0.07-0.26-0.14-0.4-0.21c-5.07-3.02-10.18-6.07-15.33-9.14c-9.37-6.26-18.44-12.18-26.61-16.67
			c-1.02-0.56-2.03-1.11-3.02-1.61c-2.04-1.12-4.08-2.24-6.12-3.36c7.42,4.51,14.81,8.99,22.13,13.43c4.55,2.74,9.1,5.48,13.61,8.2
			c2.75,1.84,5.54,3.71,8.32,5.57c-0.32-0.15-0.67-0.31-0.96-0.45c-2.56-1.44-10.66-3.97-7.32-1.09
			c9.42,6.11,20.86,13.27,29.92,18.92c4.53,2.83,8.47,5.28,11.28,7.03c1.4,0.88,2.51,1.59,3.28,2.07c0.38,0.25,0.67,0.44,0.87,0.57
			c0.2,0.13,0.29,0.21,0.29,0.22c0.79,1.45-32.01-18.7-30.9-17.74c1.76,1.24,3.53,2.48,5.29,3.72c-1.8-0.98-3.57-1.94-5.21-2.79
			c-3.77-2.22-8.55-5.57-11.22-6.84c-9.19-4.59-18.76-11.29-28.96-17c-6.44-3.49-14.19-7.61-21.95-11.73
			c-0.21,0.33-3.78-2.23-2.77-1.1c-6.9-4.49-14.88-9.69-18.46-10.66c-0.17-0.1-0.35-0.2-0.52-0.3c-0.49-0.32-1.21-0.71-2-1.12
			c-2.99-2.01-5.8-3.8-8.49-5.44c-2.37-1.43-4.58-2.69-6.66-3.82c-1.72,1.62-3.34,3.19-4.9,4.72l-0.58,0.57l-0.73,0.69
			c-0.5,0.47-1.01,0.95-1.52,1.43c-1.03,0.96-2.08,1.93-3.15,2.94c-3.24,2.78-6.57,5.58-10.03,8.41c2.26-1.85,5.77-4.46,7.91-6.46
			c0.71-0.66,1.42-1.3,2.12-1.94c1.06-0.91,2.11-1.82,3.16-2.73c0.98-0.86,1.96-1.71,2.93-2.57c1.62-1.46,3.23-2.91,4.83-4.34
			c1.8,1.04,3.6,2.08,5.38,3.11c2.18,1.29,4.36,2.58,6.53,3.87c0.78,0.37,2.04,0.97,3.2,1.57c0.63,0.43,1.26,0.85,1.89,1.28
			c0.2,0.03,0.41,0.08,0.62,0.14c8.74,5.03,18.39,11.08,25.9,15.28c13.92,8.28,28.2,17.97,41.97,27.08
			c-7.08-4.18-14.06-8.31-20.91-12.36c8.54,5.13,16.6,9.98,24.42,14.68c1.18,0.77,2.34,1.53,3.51,2.3l7.34,4.78
			c-2.25-1.55-4.47-3.08-6.68-4.61c4.69,2.77,9.33,5.5,13.9,8.2c25,15.2,50.55,31.28,75.19,47.7c-0.61-0.12-1.3-0.28-2.05-0.49
			c-12.02-7.69-23.97-15.48-34.32-20.98c6.9,4.5,11.86,7.32,18.54,11.62c-0.07,0.09-0.09,0.27-0.69-0.03
			c4.38,2.59,9.47,5.65,14.34,8.75c-1.82-0.58-3.83-1.29-5.84-2c-2.66-1.27-6.33-3.66-10.1-5.88
			c-16.05-10.05-30.94-19.88-46.82-29.66c-13.87-9.13-27.72-18.24-41.38-27.1C565.43,370.08,578.19,377.72,590.69,385.02z
			 M591.72,510.44c-1.3-0.74-2.65-1.51-4-2.27c0.17,0.17,0.34,0.33,0.51,0.49C589.41,509.44,590.68,510.05,591.72,510.44z
			 M563.23,491.66c8.21,5.75,19.5,12.57,30.34,19.27c0.09-0.01,0.16-0.02,0.18-0.06C584.89,504.88,573.62,498.1,563.23,491.66z
			 M531.93,466.41c0.05,0.06,0.11,0.12,0.17,0.18c0.01-0.03,0.01-0.06,0.03-0.09C532.07,466.48,532,466.45,531.93,466.41z
			 M400.99,377.8c-1.96,2.02-3.99,3.96-6.12,5.9c2.85,1.66,5.6,3.34,8.34,5.01c3.74,2.31,7.56,4.68,11.38,7.05
			c3.67,2.39,7.75,4.12,12.64,7.31c6.22,3.82,10.1,5.88,15.09,8.9l-3.46-2.72c8.45,5.74,13.98,7.94,22.32,13.84
			c0.11-0.16,1.54,0.3,2.76,1.1c6.21,3.82,12.12,8.13,17.22,10.99c6.22,3.82,12.32,7.79,17.43,10.66c1.23,0.8,3.98,1.9,6.54,3.33
			c3.01,1.89,6.03,3.79,9.05,5.68c-0.1-0.13-0.2-0.26-0.28-0.37c-2.42-1.59-4.9-3.18-7.43-4.67c-7.55-4.45-16.32-9.7-23.75-14.31
			c-18.55-11.62-36.09-22.12-53.62-32.61c-3.77-2.22-7.66-4.29-11.42-6.51c-2.24-1.27-4.54-2.64-6.87-4.04
			c-1.16-0.7-2.33-1.41-3.5-2.12l-1.74-1.06l-1.05-0.62c-2.83-1.66-5.7-3.33-8.65-4.88c0.98-1.03,1.82-2,2.47-2.92
			C398.9,380.01,400.5,378.7,400.99,377.8z M407.37,361.63c-1.73,1.56-3.5,3.15-5.27,4.76c-0.9,0.8-1.79,1.6-2.7,2.4l-1.6,1.4
			l-1.89,1.63c-5.04,4.34-10,8.55-14.88,12.63c3.58,2.3,7.12,4.57,10.57,6.78c3.3,2.17,6.53,4.28,9.65,6.33
			c9.79,6.38,38.52,23.7,34.91,18.55c-3.9-1.17-11.61-5.55-20.66-11.14c-4.52-2.8-9.38-5.89-14.27-9.04
			c-6.05-3.92-12.15-7.88-17.89-11.6c4.47-3.7,8.7-7.2,12.46-10.32c0.94-0.79,1.85-1.56,2.73-2.3c0.78-0.67,1.53-1.31,2.25-1.93
			c1.28-1.12,2.44-2.14,3.44-3.07C408.23,363,409.82,360.96,407.37,361.63z M512.13,323.16c-5.29-3.08-10.39-6.07-16.2-9.86
			C501.33,316.58,506.73,319.87,512.13,323.16z M456.23,327.34c3.15-2.98,6.41-5.96,9.71-8.94c3.05-2.77,7.32-6.48,11.37-9.98
			c5.04,3.09,10.09,6.18,15.1,9.25c4.53,2.76,9.03,5.49,13.46,8.13c12.55,7.48,25.45,17.05,37.2,23.07l0.32-0.49l-1.32-0.63
			c-4.23-2.89-7.51-5.41-11.02-7.89c0.21,0.12,0.44,0.25,0.66,0.37c-0.37-0.23-0.73-0.45-1.1-0.68c-2.35-1.65-4.82-3.29-7.77-5.04
			c-1.36-0.78-2.75-1.58-4.15-2.38c-6.58-4.09-13.25-8.24-19.82-12.33c-3.29-2.02-6.57-4.02-9.81-5.95
			c-1.95-1.17-3.88-2.34-5.79-3.49c-2.03-1.21-4.04-2.41-6.03-3.59c-2.64,2.35-5.09,4.56-7.39,6.68c-0.57,0.51-1.13,1.02-1.69,1.53
			c-0.46,0.43-0.92,0.85-1.37,1.28c-0.9,0.85-1.79,1.69-2.67,2.52c-1.75,1.68-3.46,3.33-5.18,4.97c-3.42,3.3-6.84,6.61-10.61,10.06
			C450.58,331.97,454.1,329.34,456.23,327.34z"/>
		<path class="st0" d="M568.39,369.94c5.4,3.26,10.84,6.54,16.33,9.84c4.28,2.48,8.53,4.94,12.79,7.4
			c20.19,11.91,42.91,27.14,64.24,40.47c0.94-0.08,1.33-0.52,0.9-1.52c-22.53-15.45-45.99-29.48-68.68-44.65
			c-0.19-0.1-0.38-0.2-0.57-0.3c-10.42-5.39-26.1-16.07-38.85-23.21c-12.86-6.98-25.3-14.62-38.04-21.76
			C534.16,347.72,551.18,358.31,568.39,369.94z"/>
		<path class="st0" d="M435.09,357.28c4.35-3.71,8.72-7.43,13.12-11.19c6.04-5.24,11.72-10.21,17.24-15.1
			c2.75-2.45,5.47-4.87,8.18-7.27l1.01-0.91l0.25-0.22l0.1-0.1l0.21-0.21l0.86-0.87l1.86-1.85l0.13,0.07l-0.13-0.08l-2.85,2.41
			c-1.89,1.56-3.77,3.13-5.66,4.7c-4.13,3.39-8.27,6.79-12.42,10.21C448.69,343.91,442.17,350.51,435.09,357.28z"/>
		<path class="st0" d="M484.37,323.03c-0.87-0.5-1.73-1.01-2.59-1.51l-1.32-0.68c-0.81-0.41-1.61-0.82-2.41-1.23
			c12.12,7.64,24.15,15.22,36.15,22.79c22.13,13.47,44.21,27.03,66.47,40.31c2.51,1.53,5.01,3.05,7.49,4.56
			c-19.66-12.94-39.29-25.86-58.37-38.05c-9.54-6.1-18.95-12.01-28.15-17.65c-4.6-2.82-9.15-5.57-13.65-8.25
			c-1.12-0.67-2.24-1.33-3.36-1.99l-1.67-0.98l-0.39-0.22l-0.27-0.15l-0.53-0.29c-1.4-0.76-2.72-1.46-3.96-2.1
			c-0.45,0.44-0.87,0.85-1.29,1.27c-0.32,0.32-0.67,0.67-1.01,1.01c0.78-0.65,1.56-1.31,2.32-1.95
			c13.84,8.74,27.52,17.39,41.17,26.01C507.48,336.93,495.95,329.94,484.37,323.03z"/>
		<path class="st0" d="M563.15,366.81c1.18,0.78,2.34,1.55,3.51,2.31c1.4,0.83,2.78,1.65,4.16,2.47c-0.81-0.55-1.63-1.1-2.43-1.65
			C566.63,368.89,564.88,367.84,563.15,366.81z"/>
		<path class="st0" d="M531.05,339.85c-0.15-0.1-0.29-0.21-0.45-0.31c-3.92-2.43-7.9-4.91-11.92-7.41
			c-5.66-3.26-11.54-6.73-17.5-10.35C511.88,328.48,522.47,335.11,531.05,339.85z"/>
		<path class="st0" d="M499.74,313.85c-1.22-0.8-3.66-2.39-4.89-3.19c-0.81-0.39-1.61-0.77-2.42-1.15c1.14,0.76,2.29,1.52,3.43,2.28
			L499.74,313.85z"/>
		<path class="st0" d="M422.01,347.77c8.69-7.56,17.15-14.92,25.43-22.12c4.14-3.61,8.23-7.18,12.29-10.73
			c1.01-0.89,2.03-1.77,3.04-2.66l1.51-1.32l2.14-1.84c3.5-2.97,6.98-5.94,10.45-8.89c4.11,2.57,7.91,4.94,11.71,7.32l1.33,0.74
			l0.33,0.19l0.2,0.1l0.4,0.19l1.59,0.76c-5.22-3.41-10.42-6.81-15.6-10.19c-4.15,3.44-8.28,6.86-12.39,10.26
			c-1.16,0.99-2.32,1.98-3.47,2.96c-1.13,0.98-2.25,1.95-3.37,2.92c-4.46,3.9-8.76,7.79-12.85,11.66c-2.13,1.99-5.15,5.22-7.41,7.07
			c-10.57,8.88-20.36,17.68-30.16,26.42c4.74-4.1,9.53-8.25,14.42-12.49C421.74,348.01,421.88,347.89,422.01,347.77z"/>
	</g>
	<g>
		<path class="st0" d="M540.55,607.69c1.26,0.82,2.45,1.59,2.45,1.59c0.03-0.05,0.04-0.12,0.07-0.19
			C542.14,608.59,541.32,608.13,540.55,607.69z"/>
		<path class="st0" d="M536.88,608.1c0.25,0.17,0.51,0.33,0.77,0.5c-0.06-0.1-0.04-0.15-0.06-0.23
			C537.36,608.29,537.14,608.21,536.88,608.1z"/>
		<path class="st0" d="M543.06,609.09c0.2-0.72-0.42-1.98,1.21-1.77c1.35,0.88,4.05,2.64,5.41,3.53c1.57,0.55,0.43-0.65,0.64-0.98
			c1.35,0.88,2.7,1.76,2.81,1.6c1.17,0.15-0.11-1.09-2.67-2.9C543.45,606.6,528.19,597.59,543.06,609.09z"/>
		<path class="st0" d="M531.42,603.38c2.37,1.55,4.74,3.09,7.12,4.64c0.98,0.11,2.23,0.38,1.76-0.46
			C536.43,605.43,533.97,604.28,531.42,603.38z"/>
		<path class="st0" d="M612.29,533.55c0.07-0.1,0.22-0.07,1.35,0.87C613.16,534.12,612.73,533.84,612.29,533.55
			c-0.08,0.08-0.09,0.27-0.74-0.07c4.84,2.89,10.46,6.3,15.85,9.74c0.81,0.28,1.6,0.54,2.32,0.76
			c-13.3-8.53-26.55-17.16-37.95-23.35C599.43,525.63,604.89,528.78,612.29,533.55z"/>
		<path class="st0" d="M631.39,543.67c0.46,0.3,0.89,0.58,1.35,0.87C631.63,543.6,631.47,543.57,631.39,543.67z"/>
		<path class="st0" d="M393.02,393.61c-1.49-0.91-2.92-1.71-4.2-2.38c-1.29,1.25-2.44,2.43-3.45,3.52c-2.16,2.05-4.29,4.07-6.43,6.1
			c2.25-1.95,4.5-3.9,6.75-5.84c1.07-0.97,2.13-1.94,3.18-2.89c1.27,0.74,2.53,1.46,3.75,2.17c2.5,1.53,4.95,3.03,7.32,4.48
			c4.79,2.92,9.3,5.62,13.38,7.98C406.59,402.38,399.83,398.01,393.02,393.61z"/>
		<path class="st0" d="M347.24,430.09c9.58-7.36,16.98-14.04,23.92-20.56c-7.38,6.24-14.71,12.45-22.01,18.63
			C348.52,428.79,347.85,429.47,347.24,430.09z"/>
		<path class="st0" d="M356.84,420.67c8.56-6.99,15.38-13.42,22.1-19.81C371.09,407.67,363.48,414.42,356.84,420.67z"/>
		<path class="st0" d="M537.09,469.45c6.4,3.49,10.22,5.69,12.36,7.01c1.08,0.38,2.49,0.9,4.39,1.63c-0.35-0.23-0.73-0.48-1.08-0.71
			c-6.48-3.8-13.03-7.69-19.64-11.64c-2.77-1.51-5.43-2.92-7.71-4.03C529.3,464.29,533.21,466.88,537.09,469.45z"/>
		<path class="st0" d="M549.44,476.45C540.24,473.24,557.77,481.59,549.44,476.45L549.44,476.45z"/>
		<path class="st0" d="M503.37,461.09c-0.31-0.2-0.62-0.4-0.93-0.61c-0.92-0.55-1.87-1.11-2.78-1.65
			C500.92,459.6,502.12,460.33,503.37,461.09z"/>
		<path class="st0" d="M431.02,407.33c5.39,3.42,10.82,6.79,16.18,10.06c-10.96-6.9-22.02-13.86-31.4-19.28
			c1.35,0.88,2.6,1.93,3.95,2.81C422.68,402.36,426.95,404.68,431.02,407.33z"/>
		<path class="st0" d="M546.58,487.07c-14.99-9.17-29.77-18.06-44.14-26.59c-28.44-18.45-56.09-35.91-81.56-50.6
			c-4.87-2.77-10.45-6.11-16.43-9.76c-2.99-1.83-6.09-3.73-9.25-5.68c-0.72-0.44-1.44-0.88-2.17-1.33
			c-0.47-0.28-0.95-0.56-1.43-0.85c-0.93-0.55-1.86-1.1-2.8-1.65c-1.08,0.97-2.17,1.95-3.26,2.92l-0.88,0.79l-1.43,1.24
			c-0.95,0.83-1.9,1.65-2.84,2.47c-3.78,3.29-7.5,6.57-11.06,9.77c-7.13,6.4-13.63,12.5-18.75,17.83c2.2-1.69,4.29-3.35,6.28-4.97
			c-2.77,2.61-5.34,5.11-7.69,7.49c-7.26,6.11-14.49,12.19-21.7,18.27l-5.42,4.55l-2.71,2.27l-0.47,0.4l-0.14,0.13l-0.28,0.25
			l-2.07,1.88l1.57,0.93l0.75,0.44l0.37,0.22l0.18,0.11l0.57,0.36c4.98,3.2,9.97,6.4,14.97,9.62c9.98,6.47,20.04,12.98,30.2,19.57
			c5.42,3.53,9.8,5.68,15.22,9.21c5.5,3.54,10.92,7.02,16.31,10.49c0.04-0.02,0-0.1-0.12-0.24c22.43,14.32,44.58,28.29,68.02,42.8
			c10.93,6.89,21.67,14.12,32.49,21.17c4.06,2.65,3.63,3.3,6.24,5.23c10.29,7.87,17.98,13.82,29.95,22.08c0,0-0.21,0.33-0.32,0.49
			c1.9,1.16,3.58,2.26,4.91,3.21c-7.02-1.95-22.28-10.97-7.4,0.54l0,0.01c-0.91-0.51-1.73-0.97-2.51-1.4
			c-0.09-0.06-0.18-0.11-0.26-0.17c0.01,0.01,0,0.02,0,0.03c-3.87-2.13-6.31-3.27-8.87-4.17c2.37,1.54,4.74,3.09,7.12,4.64
			c-0.6-0.06-1.04-0.02-0.95,0.37c-0.23-0.09-0.45-0.18-0.71-0.28c-1.05-0.69-1.94-1.26-1.94-1.26c-0.43-0.1-0.76-0.14-1.02-0.12
			c-6.67-3.34-16.69-9.35-15.26-7.45c1.22,1.29,5.96,3.95,11.24,7.1c0.27,0.26,0.59,0.55,0.93,0.84c-6.87-4.25-0.75,1.15-4.91-1.33
			l-16.34-10.41c-22.04-14.36-40.72-26.3-62.69-39.92c-0.97-0.6-1.93-1.2-2.89-1.8c-10.63-6.64-20.56-13.06-30.75-19.88
			c0.73,0.31,1.48,0.66,2.25,1.01c-8.2-5.49-16.46-10.93-24.9-16.07c-20.73-12.57-41.45-25.14-63.21-39.09
			c-8.11-5.21-16.13-10.37-24.05-15.46c5.35-4.45,10.68-8.89,16.01-13.33c4.01-3.38,8.03-6.76,12.06-10.16
			c7.48-6.38,15.01-12.8,22.68-19.34c-8.42,7.45-16.86,14.85-25.7,22.25c-2.01,1.63-4.01,3.26-6,4.88
			c-2.77,2.28-5.53,4.54-8.24,6.77c2.81-2.28,5.6-4.54,8.37-6.79c1.97-1.63,3.92-3.25,5.86-4.86c15.46-12.54,31.45-25.3,42.16-36.42
			c1.39-0.93,1.51-0.77,2.76-1.79c4.16-3.39,8.31-6.79,12.33-10.07c2.25-1.89,4.46-3.76,6.61-5.57c2.9-2.47,5.73-4.93,8.53-7.42
			c0.68,0.4,1.34,0.78,1.99,1.16c-0.01-0.24,6.44,3.96,4.39,2.16c4.81,3.05,10.02,6.36,15.23,9.66c4.44,2.81,8.89,5.59,13.06,8.07
			c3.59,2.19,7.29,4.15,11.06,6.06c29.63,18.06,58.92,35.89,90.78,55.46c7.88,4.91,16.86,10.75,24.73,15.88
			c-11.94-7-24.17-14.33-36.56-21.82c-11.68-7.78-22.94-15.12-32.76-20.32c-2.26-1.26-4.5-2.51-6.75-3.77
			c13.31,8.12,26.53,16.17,39.51,24.09c6.9,4.59,13.94,9.34,20.9,13.89c-0.15-0.08-0.29-0.15-0.44-0.24
			c-5.6-3.37-11.24-6.76-16.93-10.19c-10.39-6.92-20.43-13.48-29.44-18.51c-1.12-0.63-2.24-1.24-3.32-1.81
			c-2.25-1.25-4.5-2.51-6.75-3.77c8.2,5.02,16.37,10.01,24.47,14.95c5.03,3.06,10.05,6.11,15.04,9.14c3.05,2.04,6.14,4.1,9.22,6.16
			c-0.35-0.17-0.73-0.35-1.05-0.51c-2.83-1.61-11.66-4.62-7.92-1.49c10.43,6.77,23.08,14.72,33.11,21
			c5.02,3.14,9.37,5.87,12.48,7.81c1.55,0.98,2.78,1.76,3.63,2.3c0.42,0.27,0.74,0.49,0.96,0.63c0.22,0.15,0.33,0.23,0.32,0.24
			c0.92,1.53-35.35-20.88-34.11-19.83c1.96,1.37,3.92,2.74,5.88,4.1c-1.99-1.1-3.93-2.18-5.74-3.14c-4.16-2.48-9.47-6.17-12.4-7.61
			c-10.11-5.19-20.73-12.57-31.98-18.97c-7.1-3.92-15.64-8.55-24.18-13.19c-0.21,0.33-4.18-2.49-3.03-1.28
			c-7.64-4.98-16.48-10.74-20.37-11.91c-0.19-0.11-0.38-0.22-0.57-0.34c-0.54-0.35-1.34-0.8-2.21-1.25
			c-12.6-8.45-22.06-13.32-33.99-20.2c-2-1.26-4.02-2.53-6.07-3.81c-1.83-1.17-3.68-2.36-5.55-3.56c1.17,0.79,2.63,1.77,4.08,2.75
			c1.68,1.12,3.37,2.23,4.78,3.03c0.93,0.54,1.85,1.07,2.75,1.6c10.41,6.48,20.48,12.41,30.48,18.42c0.86,0.42,2.25,1.1,3.52,1.78
			c0.7,0.47,1.39,0.94,2.1,1.42c0.21,0.04,0.44,0.1,0.68,0.17c9.65,5.62,20.33,12.34,28.61,17.04
			c15.38,9.23,31.21,19.94,46.47,30.01c-7.82-4.67-15.53-9.27-23.09-13.79c9.44,5.72,18.34,11.11,26.98,16.35
			c1.31,0.86,2.59,1.7,3.88,2.54l8.13,5.3c-2.49-1.71-4.96-3.4-7.42-5.08c5.18,3.09,10.3,6.14,15.35,9.14
			c27.64,16.92,55.91,34.77,83.21,52.93c-0.67-0.15-1.41-0.35-2.23-0.6c-13.31-8.53-26.54-17.16-37.95-23.34
			c7.64,4.98,13.12,8.14,20.51,12.91c-0.07,0.09-0.09,0.27-0.74-0.07c4.84,2.89,10.46,6.3,15.85,9.74
			c-1.99-0.69-4.19-1.52-6.38-2.35c-2.93-1.44-6.98-4.08-11.15-6.57c-17.75-11.16-34.25-22.04-51.81-32.91
			c-15.36-10.1-30.71-20.19-45.84-30.01C518.67,470.4,532.77,478.92,546.58,487.07z M501.85,582.68c-1.44-0.83-2.93-1.68-4.41-2.54
			c0.2,0.18,0.38,0.36,0.57,0.53C499.32,581.52,500.72,582.22,501.85,582.68z M470.29,561.89c9.11,6.34,21.59,13.93,33.58,21.38
			c0.1,0,0.17-0.02,0.19-0.06C494.24,576.6,481.78,569.05,470.29,561.89z M435.39,534.29c0.06,0.06,0.13,0.13,0.19,0.2
			c0.01-0.03,0.01-0.06,0.03-0.09C435.54,534.37,435.47,534.33,435.39,534.29z M332.8,433.52c-4.25,4.04-9.13,8.34-14.34,12.82
			c-3.75,3.23-7.69,6.64-11.67,10.07c0.89,0.54,1.78,1.08,2.67,1.62c1.31,0.85,2.86,1.63,4.37,2.38c0.76,0.38,1.52,0.75,2.27,1.16
			l0.28,0.15l0.34,0.19c0.32,0.19,0.64,0.39,0.96,0.58c0.65,0.4,1.31,0.81,1.99,1.26c6.88,4.25,11.15,6.56,16.67,9.93l-3.85-2.98
			c9.37,6.34,15.43,8.89,24.68,15.39c0.11-0.16,1.67,0.39,3.03,1.27c6.87,4.24,13.43,8.99,19.06,12.19
			c6.87,4.25,13.63,8.65,19.27,11.85c1.36,0.89,4.38,2.15,7.2,3.76c3.33,2.1,6.67,4.2,10.01,6.3c-0.12-0.14-0.22-0.28-0.32-0.4
			c-2.68-1.76-5.43-3.52-8.22-5.19c-8.34-4.97-18.03-10.81-26.25-15.94c-20.52-12.91-39.9-24.6-59.27-36.29l-3.14-1.84l-1.5-0.85
			l-0.85-0.42c-1.15-0.57-2.38-1.2-3.61-1.89c-1.33-0.7-2.73-1.49-4.18-2.33c1.23-1.14,2.58-2.35,3.95-3.59
			c0.7-0.63,1.39-1.25,2.07-1.86c0.35-0.32,0.7-0.63,1.04-0.94c0.51-0.45,1.02-0.9,1.52-1.34c4.48-3.93,8.45-7.56,11.19-10.53
			C329.3,436.9,331.8,434.85,332.8,433.52z M341.42,415.53c-6.33,5.71-13.09,11.63-19.84,17.37c-3.37,2.87-6.74,5.7-10.05,8.44
			c-2.05,1.68-4.07,3.34-6.06,4.97c-2.19,1.77-4.34,3.51-6.44,5.22c-1.85,1.54-4.18,3.47-6.84,5.68c4.55,2.88,9.9,6.22,15.13,9.41
			c1.3,0.79,2.6,1.58,3.89,2.36c1.03,0.61,2.06,1.21,3.06,1.8c1.94,1.12,3.82,2.19,5.56,3.16c6.98,3.86,11.84,6.08,10.06,3.72
			c-2.76-0.91-7.32-3.3-12.92-6.56c-1.39-0.83-2.86-1.7-4.38-2.61c-1.82-1.13-3.71-2.3-5.66-3.5c-3.95-2.47-8.16-5.14-12.47-7.91
			c6.87-5.65,14.03-11.55,20.82-17.14c5.79-4.75,11.25-9.25,15.74-13.06C340.01,419.26,345.16,414.35,341.42,415.53z M459.05,419.35
			c-5.84-3.44-11.47-6.78-17.91-10.98C447.11,412.04,453.07,415.69,459.05,419.35z M397.04,388.46
			c18.34,10.32,37.39,22.5,55.41,33.31c13.86,8.33,28.21,18.85,41.14,25.64l0.32-0.49l-1.46-0.71c-4.69-3.19-8.35-5.95-12.24-8.68
			c0.24,0.13,0.49,0.28,0.72,0.41c-0.4-0.25-0.81-0.5-1.22-0.76c-2.6-1.82-5.35-3.64-8.61-5.58c-1.51-0.87-3.04-1.76-4.58-2.66
			c-17.11-10.74-34.73-21.86-50.73-30.81c-4.64-2.69-9.03-5.12-13.41-7.53c-1.09-0.6-2.19-1.21-3.29-1.81
			c-1.15-0.64-2.3-1.28-3.46-1.93c-2.38-1.36-4.79-2.74-7.29-4.16c-0.44,0.4-0.93,0.84-1.41,1.27c0.43-0.34,0.89-0.72,1.42-1.14
			C391.11,384.66,394.56,387.04,397.04,388.46z"/>
		<path class="st0" d="M521.85,470.41c5.97,3.63,11.98,7.28,18.05,10.96c4.73,2.77,9.42,5.52,14.12,8.27
			c22.3,13.28,47.49,30.12,71.08,44.93c1-0.03,1.4-0.47,0.89-1.53c-25-17.05-50.91-32.68-76.06-49.47
			c-0.21-0.11-0.42-0.22-0.63-0.33c-11.48-6.08-28.86-17.87-42.92-25.87c-14.17-7.84-27.92-16.33-41.99-24.32
			C483.95,445.79,502.77,457.55,521.85,470.41z"/>
		<path class="st0" d="M371.16,409.53c4.82-4.1,9.67-8.21,14.56-12.36l0.97-0.84l0.32-0.31c0.22-0.21,0.44-0.42,0.66-0.63
			c0.45-0.44,0.89-0.87,1.31-1.27c0.53,0.28,1.04,0.56,1.56,0.83l0.81,0.43l0.41,0.22l0.97,0.58c2.87,1.73,5.69,3.42,8.48,5.11
			c5.6,3.34,11.1,6.61,16.65,9.91c-5-3.21-10.01-6.43-15.04-9.66c-4.17-2.7-8.35-5.41-12.55-8.13c-0.48-0.28-0.94-0.55-1.36-0.78
			c-0.91,0.85-1.75,1.68-2.49,2.46l-0.27,0.29l-0.13,0.14l-0.32,0.29c-0.46,0.42-0.91,0.84-1.36,1.26c-0.9,0.84-1.79,1.67-2.67,2.5
			C378.14,402.91,374.69,406.18,371.16,409.53z"/>
		<path class="st0" d="M429.18,417.86c-3.83-2.26-7.58-4.47-11.33-6.67c14.84,9.49,29.61,18.84,44.37,28.15
			c24.46,14.99,48.88,30.07,73.47,44.87c2.78,1.7,5.54,3.4,8.28,5.08c-44.59-29.32-89.05-58.56-128.35-81.22
			c-0.72-0.42-1.52-0.88-2.29-1.32c18.13,11.66,36.15,23.06,54.14,34.41C454.72,433.35,441.97,425.56,429.18,417.86z"/>
		<path class="st0" d="M516.06,466.91c1.31,0.86,2.6,1.71,3.89,2.56c1.55,0.93,3.07,1.84,4.6,2.76c-0.9-0.61-1.8-1.22-2.7-1.82
			C519.91,469.24,517.98,468.07,516.06,466.91z"/>
		<path class="st0" d="M480.21,437.52c-0.16-0.11-0.33-0.23-0.5-0.35c-4.33-2.71-8.74-5.46-13.19-8.24
			c-6.25-3.65-12.74-7.52-19.33-11.54C459.04,424.84,470.75,432.2,480.21,437.52z"/>
		<path class="st0" d="M445.26,409.14c-1.35-0.88-4.05-2.64-5.42-3.53c-0.89-0.44-1.77-0.87-2.66-1.31c1.26,0.84,2.53,1.68,3.8,2.52
			L445.26,409.14z"/>
		<path class="st0" d="M357.74,400.3c4.5-3.88,8.93-7.72,13.25-11.45c2.32-2,4.61-3.98,6.86-5.92c3.42-2.9,6.78-5.75,10.07-8.54
			c2.88,1.81,5.73,3.6,8.56,5.37c1.4,0.88,2.8,1.75,4.19,2.63c0.88,0.54,1.75,1.07,2.62,1.6c3.48,2.13,6.91,4.22,10.31,6.3
			c6.8,4.15,13.46,8.21,20.11,12.27c1.16,0.58,2.33,1.16,3.49,1.74c-7.43-4.92-14.9-9.74-22.29-14.34c-3.7-2.3-7.37-4.54-11.02-6.71
			c-0.91-0.54-1.82-1.08-2.73-1.61c-1.49-0.91-2.98-1.82-4.47-2.72c-2.96-1.78-5.9-3.55-8.81-5.3l-0.11,0.09
			c-2.09,1.83-4.65,4.18-7.13,6.43c-1.23,1.11-2.47,2.21-3.64,3.26c-0.43,0.38-0.85,0.76-1.25,1.11c-0.34,0.3-0.66,0.57-0.97,0.83
			c-11.72,9.82-22.61,19.52-33.5,29.15c5.26-4.53,10.58-9.11,16.01-13.78C357.44,400.56,357.59,400.43,357.74,400.3z"/>
	</g>
	<g>
		<path class="st0" d="M446.01,676.88c1.25,0.82,2.44,1.59,2.44,1.59c0.03-0.05,0.04-0.12,0.07-0.19
			C447.6,677.77,446.78,677.31,446.01,676.88z"/>
		<path class="st0" d="M442.34,677.29c0.25,0.16,0.51,0.33,0.77,0.5c-0.06-0.1-0.04-0.15-0.06-0.23
			C442.82,677.48,442.6,677.4,442.34,677.29z"/>
		<path class="st0" d="M448.51,678.27c0.21-0.72-0.42-1.98,1.21-1.77c1.35,0.88,4.04,2.63,5.4,3.52c1.56,0.55,0.43-0.65,0.64-0.98
			c1.35,0.88,2.7,1.76,2.8,1.59c1.16,0.15-0.11-1.09-2.66-2.9C448.9,675.78,433.68,666.79,448.51,678.27z"/>
		<path class="st0" d="M436.9,672.57c2.37,1.54,4.73,3.08,7.1,4.63c0.98,0.1,2.23,0.38,1.76-0.46
			C441.89,674.62,439.44,673.47,436.9,672.57z"/>
		<path class="st0" d="M527.25,608.93c0.07-0.1,0.22-0.07,1.35,0.87C528.12,609.49,527.69,609.21,527.25,608.93
			c-0.08,0.08-0.09,0.27-0.74-0.07c4.82,2.88,10.43,6.28,15.81,9.71c0.81,0.28,1.59,0.54,2.32,0.76
			c-13.27-8.51-26.48-17.11-37.85-23.28C514.42,601.03,519.87,604.17,527.25,608.93z"/>
		<path class="st0" d="M546.31,619.01c0.46,0.3,0.89,0.58,1.35,0.87C546.54,618.95,546.38,618.92,546.31,619.01z"/>
		<path class="st0" d="M308.5,469.32c-1.08-0.67-2.15-1.33-3.2-1.97c-0.49-0.29-0.98-0.59-1.46-0.88c-0.29-0.16-0.58-0.32-0.86-0.48
			c-1.14-0.62-2.2-1.16-3.18-1.62c-0.83,0.85-1.59,1.66-2.29,2.43l-0.51,0.57l-0.25,0.28l-0.12,0.14l-0.06,0.07l-0.14,0.13
			l-2.24,2.14l2.35-2.04l1.11-1.02c0.73-0.67,1.46-1.33,2.18-1.99c0.71,0.41,1.41,0.81,2.11,1.22l1.08,0.63l0.56,0.32l1.1,0.68
			c2.93,1.8,5.81,3.57,8.6,5.28c5.59,3.41,10.84,6.58,15.53,9.29C322.08,478.1,315.31,473.72,308.5,469.32z"/>
		<path class="st0" d="M262.59,499.28c9.56-7.34,16.94-14,23.85-20.51c-7.36,6.23-14.67,12.42-21.95,18.58
			C263.86,497.98,263.19,498.66,262.59,499.28z"/>
		<path class="st0" d="M272.16,489.88c8.54-6.97,15.34-13.39,22.04-19.76C286.37,476.91,278.78,483.65,272.16,489.88z"/>
		<path class="st0" d="M452.27,544.97c6.38,3.48,10.2,5.67,12.33,6.98c1.08,0.38,2.49,0.89,4.38,1.62c-0.35-0.23-0.73-0.48-1.08-0.7
			c-6.46-3.79-12.99-7.66-19.59-11.61c-2.76-1.51-5.42-2.92-7.69-4.02C444.5,539.82,448.41,542.41,452.27,544.97z"/>
		<path class="st0" d="M464.59,551.95C455.41,548.76,472.9,557.07,464.59,551.95L464.59,551.95z"/>
		<path class="st0" d="M418.62,536.66c-0.31-0.2-0.62-0.4-0.93-0.6c-0.92-0.54-1.86-1.11-2.77-1.65
			C416.18,535.17,417.38,535.9,418.62,536.66z"/>
		<path class="st0" d="M346.48,483.03c5.37,3.41,10.79,6.77,16.14,10.03c-10.93-6.88-21.96-13.82-31.32-19.22
			c1.34,0.88,2.59,1.93,3.94,2.8C338.16,478.08,342.42,480.39,346.48,483.03z"/>
		<path class="st0" d="M461.72,562.57c-14.95-9.15-29.69-18.01-44.03-26.51c-28.37-18.4-55.94-35.81-81.35-50.46
			c-5.44-3.09-11.76-6.9-18.56-11.05c-3.39-2.09-6.91-4.25-10.49-6.45c-0.89-0.55-1.79-1.11-2.7-1.66
			c-0.58-0.35-1.16-0.69-1.75-1.04c-1.03-0.6-2.06-1.21-3.1-1.82c-0.97,0.87-1.93,1.75-2.9,2.62l-0.69,0.64
			c-0.14,0.14-0.65,0.58-1.07,0.94c-0.85,0.75-1.71,1.49-2.55,2.23c-3.39,2.97-6.71,5.92-9.88,8.79
			c-6.35,5.75-12.13,11.21-16.76,16.04c2.2-1.69,4.28-3.34,6.26-4.96c-2.76,2.6-5.33,5.09-7.67,7.47
			c-7.98,6.72-15.93,13.41-23.87,20.09l-10.96,9.2l-2.24,2.04c0.91,0.54,1.82,1.08,2.74,1.63c4.35,2.8,8.71,5.6,13.09,8.42
			c9.15,5.93,18.35,11.9,27.65,17.93c5.4,3.52,9.77,5.67,15.18,9.19c5.49,3.53,10.89,7.01,16.26,10.47c0.04-0.02,0-0.1-0.12-0.24
			c22.37,14.28,44.46,28.22,67.84,42.68c10.91,6.87,21.61,14.08,32.4,21.11c4.05,2.64,3.62,3.29,6.22,5.22
			c10.26,7.85,17.93,13.79,29.86,22.03c0,0-0.21,0.33-0.32,0.49c1.9,1.16,3.57,2.25,4.9,3.2c-7-1.94-22.22-10.93-7.39,0.55l0,0.01
			c-0.91-0.51-1.72-0.96-2.5-1.4c-0.09-0.06-0.17-0.11-0.26-0.17c0.01,0.01,0,0.02,0,0.03c-3.86-2.12-6.3-3.26-8.85-4.16
			c2.36,1.54,4.73,3.08,7.1,4.63c-0.6-0.06-1.04-0.02-0.94,0.37c-0.23-0.09-0.45-0.18-0.71-0.28c-1.05-0.68-1.93-1.26-1.93-1.26
			c-0.43-0.1-0.76-0.14-1.02-0.12c-6.65-3.33-16.65-9.32-15.22-7.42c1.21,1.29,5.94,3.94,11.22,7.08c0.27,0.26,0.59,0.55,0.92,0.84
			c-6.86-4.23-0.75,1.15-4.9-1.33l-16.3-10.38c-21.98-14.32-40.61-26.23-62.52-39.81c-0.97-0.6-1.92-1.2-2.88-1.8
			c-10.6-6.62-20.51-13.02-30.67-19.83c0.73,0.31,1.48,0.65,2.25,1.01c-8.18-5.48-16.41-10.9-24.83-16.03
			c-10.32-6.29-20.64-12.58-31.14-18.98c-5.22-3.24-10.48-6.5-15.81-9.81c-2.65-1.67-5.32-3.35-8.01-5.04
			c-2.86-1.82-5.73-3.66-8.63-5.5c-6.24-4.02-12.43-8-18.5-11.91c5.87-4.87,11.71-9.73,17.54-14.57c4.22-3.55,8.43-7.1,12.65-10.66
			c8.19-6.98,16.42-14,24.83-21.16c-8.4,7.43-16.81,14.82-25.63,22.19c-2,1.63-4,3.25-5.98,4.86c-2.13,1.75-4.25,3.49-6.33,5.21
			c2.17-1.76,4.32-3.5,6.46-5.23c1.96-1.62,3.91-3.24,5.85-4.84c15.42-12.5,31.37-25.23,42.05-36.33c1.39-0.92,1.51-0.77,2.75-1.79
			c3.35-2.73,6.7-5.46,9.98-8.13c2.05-1.7,4.08-3.37,6.07-5.02c2.41-2.01,4.78-4.01,7.12-6.02c3.1,1.91,6.14,3.74,9.17,5.5
			c0.02-0.1,1.69,0.93,2.99,1.69c0.89,0.49,1.62,0.85,1.05,0.24c8.21,5.11,17.66,11.27,25.97,16.22c3.58,2.18,7.28,4.14,11.03,6.04
			c29.55,18,58.77,35.79,90.54,55.3c7.86,4.9,16.81,10.72,24.66,15.84c-11.91-6.98-24.11-14.28-36.46-21.76
			c-11.65-7.76-22.88-15.08-32.67-20.26c-2.25-1.26-4.48-2.5-6.73-3.76c13.28,8.1,26.46,16.13,39.4,24.02
			c6.88,4.58,13.9,9.32,20.85,13.85c-0.15-0.08-0.28-0.15-0.44-0.24c-5.58-3.36-11.22-6.74-16.89-10.16
			c-10.36-6.9-20.38-13.45-29.36-18.46c-1.12-0.62-2.24-1.24-3.32-1.81c-2.24-1.25-4.49-2.51-6.73-3.76
			c8.18,5,16.33,9.98,24.4,14.91c5.02,3.05,10.03,6.09,15,9.11c3.04,2.03,6.12,4.09,9.19,6.14c-0.35-0.17-0.73-0.35-1.05-0.51
			c-2.82-1.6-11.63-4.6-7.9-1.47c10.4,6.75,23.02,14.68,33.03,20.95c5,3.13,9.35,5.85,12.44,7.79c1.54,0.98,2.77,1.76,3.62,2.29
			c0.42,0.27,0.74,0.48,0.96,0.63c0.22,0.15,0.33,0.23,0.32,0.24c0.91,1.53-35.26-20.82-34.02-19.77c1.95,1.36,3.91,2.73,5.86,4.09
			c-1.98-1.1-3.92-2.17-5.73-3.13c-4.15-2.47-9.45-6.16-12.37-7.59c-10.09-5.17-20.67-12.54-31.89-18.92
			c-7.08-3.91-15.6-8.53-24.12-13.15c-0.21,0.33-4.17-2.48-3.03-1.27c-7.62-4.96-16.43-10.71-20.32-11.88
			c-0.19-0.11-0.38-0.22-0.57-0.33c-0.54-0.35-1.34-0.79-2.2-1.25c-12.57-8.43-22-13.28-33.9-20.14c-4.01-2.49-8.06-5.06-12.2-7.75
			c2.7,1.76,6.64,4.56,9.45,6.16c0.93,0.54,1.84,1.07,2.75,1.59c10.39,6.46,20.43,12.38,30.4,18.37c0.86,0.42,2.24,1.1,3.51,1.77
			c0.7,0.47,1.39,0.94,2.09,1.41c0.21,0.04,0.44,0.1,0.68,0.17c9.63,5.6,20.27,12.3,28.53,16.99c15.34,9.2,31.13,19.88,46.35,29.93
			c-7.8-4.65-15.49-9.24-23.03-13.75c9.42,5.7,18.29,11.08,26.91,16.3c1.31,0.85,2.58,1.69,3.87,2.54l8.11,5.28
			c-2.49-1.7-4.95-3.39-7.4-5.07c5.17,3.08,10.28,6.12,15.31,9.12c27.57,16.87,55.76,34.68,82.99,52.78
			c-0.67-0.15-1.41-0.35-2.22-0.6c-13.27-8.51-26.47-17.11-37.85-23.28c7.62,4.97,13.08,8.11,20.46,12.87
			c-0.07,0.09-0.09,0.27-0.74-0.07c4.83,2.88,10.44,6.28,15.81,9.71c-1.98-0.69-4.18-1.52-6.36-2.34
			c-2.92-1.44-6.97-4.07-11.13-6.55c-17.7-11.13-34.16-21.98-51.68-32.82c-15.32-10.07-30.63-20.14-45.72-29.93
			C433.89,545.95,447.95,554.44,461.72,562.57z M407.41,651.93c-1.43-0.83-2.92-1.68-4.4-2.53c0.2,0.18,0.38,0.36,0.57,0.53
			C404.88,650.78,406.28,651.47,407.41,651.93z M375.94,631.19c9.08,6.32,21.53,13.9,33.49,21.33c0.1,0,0.17-0.02,0.19-0.06
			C399.82,645.86,387.39,638.34,375.94,631.19z M341.13,603.66c0.06,0.06,0.12,0.13,0.19,0.2c0.01-0.03,0.01-0.06,0.03-0.09
			C341.28,603.74,341.21,603.7,341.13,603.66z M248.18,502.69c-4.68,4.46-10.14,9.23-15.96,14.21c-2.58,2.21-5.23,4.47-7.92,6.76
			c-1.91,1.66-3.85,3.35-5.78,5.04l-0.57,0.48c1.29,0.78,2.78,1.52,4.23,2.25c1.47,0.74,2.89,1.47,4.32,2.41
			c6.6,3.91,10.56,6.26,15.85,9.39l-3.84-2.97c9.35,6.32,15.39,8.86,24.62,15.34c0.11-0.16,1.67,0.39,3.02,1.27
			c6.85,4.23,13.4,8.96,19.01,12.15c6.86,4.23,13.6,8.63,19.21,11.82c1.35,0.88,4.37,2.14,7.18,3.74c3.32,2.09,6.66,4.19,9.98,6.29
			c-0.12-0.14-0.22-0.27-0.32-0.39c-2.68-1.75-5.41-3.51-8.2-5.17c-8.32-4.95-17.98-10.78-26.18-15.89
			c-10.23-6.44-20.18-12.57-29.99-18.55c-9.74-5.89-19.3-11.68-28.86-17.47c-2.06-1.11-4.58-2.28-7.13-3.72
			c-0.36-0.2-0.73-0.39-1.11-0.6c1.24-1.23,2.73-2.6,4.3-4.01c0.8-0.72,1.61-1.44,2.4-2.16c1.29-1.12,2.58-2.24,3.83-3.33
			c5.32-4.63,10.13-8.94,13.28-12.36C244.68,506.05,247.17,504.01,248.18,502.69z M256.76,484.72c-6.31,5.7-13.05,11.6-19.78,17.33
			c-3.36,2.86-6.72,5.69-10.03,8.42c-1.66,1.36-3.29,2.7-4.9,4.02c-2.04,1.66-4.06,3.28-6.02,4.88c-3.21,2.62-7.8,6.46-12.65,10.6
			c4.54,2.83,9.38,5.81,13.91,8.53c1.13,0.67,2.24,1.34,3.33,1.99c0.54,0.32,1.08,0.64,1.61,0.95c0.46,0.27,0.92,0.53,1.37,0.79
			c1.63,0.92,3.18,1.78,4.59,2.54c5.68,3.04,9.29,4.53,7.72,2.44c-2.43-0.8-6.24-2.73-10.93-5.41c-0.6-0.35-1.22-0.7-1.85-1.07
			c-0.73-0.44-1.47-0.88-2.23-1.33c-1.54-0.94-3.14-1.91-4.79-2.92c-3.32-2.05-6.88-4.28-10.57-6.62c3.68-3.05,7.49-6.22,11.34-9.42
			c3.47-2.85,6.97-5.73,10.4-8.56c6.26-5.14,12.28-10.08,17.31-14.31C254.65,489.11,260.73,483.47,256.76,484.72z M374.44,495.01
			c-5.82-3.43-11.44-6.76-17.87-10.95C362.53,487.71,368.48,491.36,374.44,495.01z M312.58,464.22
			c18.29,10.29,37.29,22.43,55.27,33.21c13.82,8.31,28.14,18.8,41.03,25.57l0.32-0.49l-1.45-0.71c-4.68-3.19-8.32-5.94-12.21-8.66
			c0.23,0.13,0.49,0.28,0.72,0.41c-0.4-0.25-0.81-0.5-1.22-0.76c-2.6-1.81-5.33-3.63-8.58-5.57c-1.5-0.87-3.03-1.76-4.57-2.65
			c-17.06-10.71-34.64-21.8-50.59-30.73c-4.88-2.83-9.48-5.36-14.08-7.89c-4.63-2.55-9.06-4.97-14.45-8.13
			c1.44,0.96,3.24,2.17,5.04,3.37C309.49,462.32,311.18,463.42,312.58,464.22z"/>
		<path class="st0" d="M437.06,545.95c5.95,3.62,11.95,7.26,18,10.93c4.71,2.76,9.4,5.5,14.08,8.24
			c22.24,13.24,47.36,30.04,70.9,44.81c1-0.03,1.4-0.47,0.89-1.53c-24.93-17.01-50.77-32.6-75.86-49.33
			c-0.21-0.11-0.42-0.22-0.63-0.33c-11.45-6.06-28.78-17.82-42.81-25.8c-14.14-7.81-27.85-16.28-41.88-24.25
			C399.26,521.4,418.03,533.13,437.06,545.95z"/>
		<path class="st0" d="M286.44,478.77c2.41-2.04,4.82-4.09,7.24-6.14c1.21-1.03,2.42-2.06,3.63-3.09l0.4-0.34l0.14-0.13l0.29-0.26
			l0.58-0.54c0.43-0.41,0.85-0.82,1.23-1.18c0.58,0.31,1.16,0.62,1.73,0.92l0.9,0.48c0.76,0.46,1.51,0.91,2.26,1.37
			c3.26,1.97,6.47,3.91,9.64,5.82c6.36,3.79,12.57,7.49,18.85,11.23c-9.97-6.37-20.04-12.86-30.02-19.37
			c-1.22-0.73-2.39-1.36-3.43-1.87c-0.68,0.69-1.31,1.36-1.88,1.99c-0.27,0.31-0.54,0.61-0.81,0.92c-0.72,0.68-1.43,1.35-2.14,2.03
			C292.18,473.32,289.34,476.01,286.44,478.77z"/>
		<path class="st0" d="M344.63,493.56c-3.82-2.25-7.56-4.45-11.3-6.66c14.8,9.46,29.53,18.79,44.25,28.07
			c24.4,14.95,48.75,29.99,73.28,44.74c2.77,1.7,5.52,3.39,8.25,5.06c-44.47-29.25-88.81-58.4-128.01-81
			c-0.72-0.41-1.52-0.88-2.28-1.32c18.08,11.63,36.06,23,53.99,34.32C370.1,509,357.39,501.24,344.63,493.56z"/>
		<path class="st0" d="M431.28,542.46c1.3,0.86,2.59,1.71,3.88,2.55c1.55,0.93,3.06,1.84,4.58,2.75c-0.9-0.61-1.8-1.22-2.69-1.82
			C435.12,544.78,433.2,543.62,431.28,542.46z"/>
		<path class="st0" d="M395.54,513.13c-0.16-0.11-0.33-0.23-0.49-0.35c-4.32-2.7-8.72-5.44-13.15-8.21
			c-6.23-3.64-12.71-7.5-19.28-11.5C374.42,500.49,386.1,507.83,395.54,513.13z"/>
		<path class="st0" d="M360.69,484.82c-1.35-0.88-4.04-2.64-5.4-3.52c-0.89-0.44-1.76-0.87-2.65-1.3c1.26,0.83,2.53,1.68,3.79,2.52
			L360.69,484.82z"/>
		<path class="st0" d="M273.03,469.53c3.76-3.25,7.47-6.46,11.09-9.58c0.9-0.78,1.8-1.56,2.69-2.33c1.26-1.07,2.5-2.13,3.74-3.19
			c2.84-2.41,5.63-4.78,8.34-7.08c14.75,9.31,19.82,12.3,27.91,17.26c7.56,4.61,14.97,9.13,22.37,13.64
			c1.16,0.58,2.32,1.16,3.48,1.74c-7.43-4.91-14.88-9.73-22.27-14.33c-3.69-2.3-7.37-4.54-11.01-6.7c-1.83-1.07-3.64-2.14-5.44-3.19
			l-1.35-0.78l-0.67-0.39l-1.06-0.64c-1.48-0.89-2.95-1.77-4.41-2.64c-2.2-1.32-4.92-2.87-7.56-4.4c-2.64,2.39-5.21,4.69-7.28,6.39
			c-1.98,1.66-3.95,3.31-5.91,4.95c-1.43,1.23-2.86,2.44-4.28,3.66c-2.82,2.45-5.61,4.87-8.39,7.28
			c-5.51,4.86-10.95,9.67-16.39,14.46c5.25-4.52,10.55-9.08,15.97-13.75C272.73,469.79,272.88,469.66,273.03,469.53z"/>
	</g>
	<g>
		<path class="st0" d="M126.23,605.12c-0.19,0.15-0.37,0.3-0.37,0.3c0.04,0.05,0.08,0.1,0.13,0.14
			C126.09,605.41,126.16,605.27,126.23,605.12z"/>
		<path class="st0" d="M125.11,603.01c-0.04,0.03-0.08,0.06-0.12,0.09c0.05,0.03,0.08,0.07,0.12,0.1
			C125.11,603.15,125.11,603.08,125.11,603.01z"/>
		<path class="st0" d="M126,605.58c0.48,0.53,1.09,0.96,1.35,1.67c-0.2,0.17-0.61,0.5-0.82,0.67c0.04,0.47,0.49,0.61,0.74,0.91
			c-0.2,0.17-0.41,0.33-0.28,0.48c0.19,0.51,0.63,0.59,1.1,0.36C127.58,607.25,129.33,604.81,126,605.58z"/>
		<path class="st0" d="M126.63,603.03c-0.36,0.29-0.72,0.58-1.07,0.88c0.17,0.44,0.31,0.91,0.7,1.17
			C126.6,604.37,126.7,603.8,126.63,603.03z"/>
		<path class="st0" d="M209.35,534.33c-0.08-0.09-0.1-0.16,0.2-0.17C209.48,534.22,209.42,534.28,209.35,534.33
			c0.07,0.09,0.18,0.21,0.14,0.34c0.57-0.75,1.27-1.6,2.04-2.3c-0.03-0.25-0.06-0.49-0.1-0.73c-1.92,1.72-3.92,3.36-4.9,5.5
			C207.69,536.19,208.27,535.27,209.35,534.33z"/>
		<path class="st0" d="M210.84,530.59c0.07-0.06,0.13-0.12,0.2-0.17C210.74,530.43,210.76,530.5,210.84,530.59z"/>
		<path class="st0" d="M178.02,563.12c-1.13,1.14-1.78,2.55-2.46,3.95c1.97-2.33,4.18-4.49,5.48-6.52
			C180.05,561.42,179.05,562.28,178.02,563.12z"/>
		<path class="st0" d="M171.75,573.51c1.76-0.96,2.71-2.37,3.49-3.87c-1.11,1.14-2.22,2.26-3.33,3.36
			C171.86,573.18,171.79,573.34,171.75,573.51z"/>
		<path class="st0" d="M172.67,571.18c1.4-1.13,2.16-2.62,2.89-4.12C174.44,568.38,173.42,569.75,172.67,571.18z"/>
		<path class="st0" d="M188.96,534.66c0.56-1.19,0.96-1.84,1.24-2.14c-0.03-0.33-0.06-0.74-0.07-1.27
			c-0.05,0.04-0.11,0.09-0.16,0.13c-0.72,1.05-1.49,2.08-2.27,3.11c-0.24,0.52-0.45,1.03-0.57,1.54
			C187.75,535.59,188.37,535.14,188.96,534.66z"/>
		<path class="st0" d="M190.2,532.52C190.48,535.31,191.28,531.32,190.2,532.52L190.2,532.52z"/>
		<path class="st0" d="M192.03,546.88c-0.05,0.04-0.09,0.08-0.14,0.12c-0.11,0.15-0.22,0.29-0.32,0.44
			C191.72,547.25,191.87,547.07,192.03,546.88z"/>
		<path class="st0" d="M177.15,551.89c0.76-0.72,1.48-1.49,2.15-2.28c-1.51,1.5-3.03,3.01-4.03,4.57c0.2-0.17,0.53-0.18,0.74-0.35
			C176.17,553.2,176.54,552.39,177.15,551.89z"/>
		<path class="st0" d="M197.25,540.27c-1.91,2.2-3.69,4.46-5.36,6.73c-4.24,3.56-8.08,7.3-10.78,11.57
			c-2.28,3.88-8.24,8.25-9.53,13.35c0.4-0.22,0.77-0.47,1.09-0.73c-0.31,0.6-0.57,1.21-0.76,1.82c-4.97,4.94-9.99,9.59-15.51,14.09
			c-0.82,0.67-1.06,1.62-1.88,2.29c-0.81,0.7-1.6,1.39-2.38,2.09c0.02,0.04,0.06,0.06,0.11,0.08c-3.21,2.94-6.27,5.94-9.35,9.29
			c-1.51,1.49-3.27,2.67-4.9,4.01c-0.61,0.5-1.11-0.1-1.64,0.08c-2.25,0.58-3.97,0.97-6.06,2.17c0,0-0.25-0.3-0.37-0.45
			c-0.24,0.28-0.5,0.48-0.74,0.6c-0.51-2.42,1.23-4.85-2.1-4.09c0,0,0,0,0-0.01c0.09-0.16,0.17-0.3,0.24-0.45
			c0.01-0.01,0.03-0.02,0.04-0.03c-0.01,0-0.01-0.01-0.02-0.01c0.35-0.71,0.45-1.28,0.38-2.05c-0.36,0.29-0.72,0.58-1.07,0.88
			c-0.11-0.27-0.24-0.52-0.45-0.7c0-0.07-0.01-0.13,0-0.2c0.16-0.13,0.29-0.24,0.29-0.24c-0.04-0.16-0.1-0.31-0.17-0.45
			c0.4-1.42,1.6-2.96,0.81-3.36c-0.48-0.14-0.94,0.69-1.56,1.52c-0.09-0.02-0.19-0.03-0.28-0.02c0.9-0.99-0.87-1.06-0.38-1.71
			c0.82-0.67,1.51-1.49,2.32-2.15c3.33-2.72,6.01-5.16,8.9-8.28c0.13-0.14,0.26-0.27,0.39-0.41c1.43-1.48,2.9-2.74,4.55-3.89
			c-0.01,0.18-0.04,0.37-0.07,0.55c1.33-0.92,2.6-1.91,3.66-3.16c2.57-3.11,5.14-6.22,8.28-9.04c3.32-2.92,6.36-5.93,9.42-9.28
			c-1.14,1.5-2.31,2.96-3.68,4.26c-0.67,0.52-1.32,1.04-1.93,1.59c0.7-0.49,1.33-1.02,1.93-1.59c2.57-2,5.3-3.93,6.08-6.93
			c0.31-0.05,0.44,0.11,0.64-0.06c1.43-1.17,2.98-2.19,3.71-3.79c-0.12-0.15,0.49-0.65,0.04-0.79c1.1-1.15,2.53-2.32,3.51-3.63
			c0.45-0.53,0.74-1.25,0.98-2.04c3.72-4.39,7.39-8.75,11.48-13.38c1.06-1.1,2.4-2.22,3.59-3.19c-1.33,1.93-2.79,3.83-4.31,5.7
			c-1.87,1.34-3.56,2.73-4.33,4.65c-0.21,0.41-0.42,0.81-0.64,1.2c1.7-1.95,3.37-3.89,4.97-5.85c1.1-0.79,2.26-1.56,3.32-2.42
			c-0.01,0.03-0.02,0.06-0.04,0.08c-0.67,0.87-1.35,1.73-2.05,2.59c-1.66,1.19-3.18,2.42-4.04,4.03c-0.11,0.2-0.21,0.41-0.29,0.62
			c-0.21,0.41-0.42,0.81-0.64,1.2c1.05-1.2,2.08-2.4,3.1-3.6c0.63-0.75,1.26-1.5,1.87-2.25c0.49-0.35,0.99-0.7,1.48-1.05
			c-0.02,0.08-0.04,0.16-0.05,0.24c-0.29,0.49,0.02,3.2,1.01,3.15c3.11-2.61,6.94-6.93,7.06-6.78c0.7,0.44-4.04,5.64-3.71,5.62
			c0.36-0.18,0.71-0.37,1.05-0.57c-0.19,0.36-0.36,0.71-0.5,1.07c-0.49,0.65-1.43,1.17-1.59,1.81c-0.69,2.08-2.57,3.11-3.71,5.05
			c-0.65,1.29-1.38,2.9-2.11,4.5c0.25,0.3-0.49,0.65-0.04,0.79c-1.15,0.94-2.49,2.03-2.26,3.32c-0.02,0.03-0.04,0.06-0.06,0.09
			c-0.08,0.07-0.16,0.21-0.22,0.38c-2.04,1.41-2.7,3.35-3.96,5.35c-0.53,0.57-1.1,1.11-1.73,1.63c0.41-0.33,1.14-0.68,1.43-1.17
			c0.1-0.15,0.2-0.3,0.3-0.46c1.39-1.47,2.53-3.08,3.74-4.61c0.05-0.19,0.12-0.49,0.22-0.74c0.11-0.08,0.23-0.16,0.35-0.23
			c-0.03-0.08-0.05-0.16-0.06-0.24c1.05-1.59,2.52-3.05,3.36-4.47c1.84-2.37,4.47-4.09,6.85-5.89c-0.94,1.19-1.85,2.39-2.73,3.6
			c1.18-1.4,2.28-2.73,3.33-4.06c0.2-0.16,0.4-0.31,0.59-0.47l1.23-1c-0.44,0.24-0.86,0.5-1.27,0.77c0.62-0.8,1.22-1.6,1.8-2.4
			c3.52-4.06,7.44-7.88,11.78-11.03c0.07,0.25,0.13,0.51,0.17,0.78c-1.92,1.72-3.92,3.36-4.9,5.5c1.15-0.94,1.73-1.86,2.82-2.8
			c0.07,0.09,0.18,0.2,0.14,0.34c0.57-0.75,1.27-1.6,2.04-2.3c0.06,0.6,0.09,1.23,0.12,1.85c-0.16,0.64-0.77,1.14-1.26,1.79
			c-2.44,2.43-5,4.39-7.31,6.89c-2.37,1.84-4.74,3.68-7,5.57C193.94,544.61,195.67,542.47,197.25,540.27z M131.95,600.23
			c0.16-0.23,0.31-0.49,0.46-0.74c-0.06-0.01-0.12-0.01-0.18-0.03C132.04,599.62,131.96,599.93,131.95,600.23z M136.85,596.47
			c-1.62,0.89-3.18,2.74-4.77,4.44c0.02,0.05,0.05,0.1,0.08,0.13C133.77,599.96,135.31,598.08,136.85,596.47z M145.02,595.04
			c-0.02-0.01-0.05-0.01-0.07-0.02c0.02,0.02,0.04,0.04,0.06,0.07C145.01,595.07,145.02,595.06,145.02,595.04z M165.96,569.88
			c-1.02,2.09-3.06,3.76-4.85,5.73c-0.61,0.5-0.73,1.61-1.55,2.27c-0.9,0.99-1.26,1.79-1.96,2.61l0.86-0.2
			c-1.55,1.02-1.63,2.59-3.31,3.46c0.12,0.15,0.17,0.62-0.04,0.79c-0.9,0.99-2.17,1.52-2.74,2.49c-0.9,0.99-1.92,1.82-2.49,2.79
			c-0.2,0.17-0.24,0.96-0.53,1.44c-0.45,0.47-0.92,0.91-1.38,1.36c0.06,0.02,0.11,0.05,0.16,0.07c0.41-0.33,0.81-0.68,1.14-1.12
			c0.98-1.31,2.16-2.78,3.26-3.93c2.82-2.81,5.18-5.75,7.54-8.69c0.49-0.65,0.85-1.46,1.34-2.11c1.34-2.11,3.71-3.79,4.07-5.85
			C165.6,570.68,166,570.35,165.96,569.88z M162.88,561.44c-1.63,2.4-3.77,4.65-5.91,6.18c-1.64,1.34-5.59,6.08-3.29,7.23
			C153.01,569.91,167.14,563.76,162.88,561.44z M177.64,544.74c-0.66,0.94-1.31,1.83-2.29,2.62
			C176.11,546.48,176.88,545.61,177.64,544.74z M173.98,558.02c1.79-3.23,4.52-5.72,6.68-8.49c1.67-2.12,4.54-3.2,5.51-5.77
			c-0.12-0.15-0.25-0.3-0.37-0.45l-0.08,0.32c-0.79,0.5-1.57,0.73-2.27,1.09c0.02-0.04,0.05-0.08,0.07-0.13
			c-0.05,0.06-0.11,0.11-0.16,0.17c-0.47,0.25-0.9,0.57-1.28,1.08c-0.16,0.25-0.33,0.51-0.5,0.76c-2.33,2.35-4.78,4.74-6.31,7.58
			c-1.06,1.62-1.66,3.38-2.72,5C172.96,558.85,173.7,558.5,173.98,558.02z"/>
		<path class="st0" d="M193.19,542.99c0.73-0.91,1.48-1.81,2.25-2.7c0.54-0.75,1.06-1.51,1.57-2.29c2.62-3.49,6.67-6.35,9.89-9.59
			c-0.26-0.53-0.62-0.99-1.13-1.36c-4.23,2.63-7.39,6.57-11.42,9.44c-0.02,0.04-0.04,0.08-0.05,0.12c-0.89,2.24-3.79,4.11-5.22,6.54
			c-1.3,2.58-3.09,4.55-4.52,6.98C187.52,547.72,190.05,545.1,193.19,542.99z"/>
		<path class="st0" d="M175.24,569.65c0.73-0.74,1.46-1.49,2.19-2.25c1.96-2.2,3.59-4.29,5.19-6.51c-1.44,1.31-2.91,2.59-4.43,3.83
			C176.79,566.12,176.13,567.94,175.24,569.65z"/>
		<path class="st0" d="M183.9,559.07c-0.43,0.62-0.86,1.22-1.29,1.82c2.13-1.94,4.19-3.92,6.24-5.92c3.12-3.58,6.31-7.08,9.28-10.84
			c0.35-0.42,0.7-0.82,1.06-1.21c-6.89,5.34-13.75,10.67-17.92,17.26c-0.07,0.13-0.16,0.26-0.24,0.38c2.64-2.33,5.16-4.75,7.65-7.19
			C187.06,555.23,185.45,557.11,183.9,559.07z"/>
		<path class="st0" d="M192.48,543.87c0.2-0.15,0.4-0.31,0.6-0.46c0.19-0.24,0.37-0.47,0.55-0.71c-0.15,0.1-0.3,0.2-0.45,0.29
			C192.95,543.29,192.71,543.58,192.48,543.87z"/>
		<path class="st0" d="M183.45,544.71c-0.03,0.01-0.06,0.03-0.09,0.05c-0.57,0.61-1.17,1.22-1.78,1.84
			c-0.69,1.02-1.45,2.04-2.28,3.01C180.93,547.99,182.53,546.38,183.45,544.71z"/>
		<path class="st0" d="M174.82,545.71c-0.2,0.17-0.61,0.5-0.82,0.67c-0.05,0.19-0.1,0.39-0.15,0.58c0.2-0.15,0.4-0.3,0.6-0.44
			L174.82,545.71z"/>
		<path class="st0" d="M164.77,558.01c3.14-3.55,6.03-6.94,8.88-10.31c0.07-0.24,0.14-0.49,0.21-0.74
			c-2.33,1.75-4.42,3.78-5.81,6.31c-0.28,0.48-0.53,1.44-0.93,1.77c-1.82,1.72-3.26,3.71-4.74,5.65c0.77-0.85,1.55-1.71,2.33-2.6
			C164.73,558.06,164.75,558.04,164.77,558.01z"/>
	</g>
	<g>
		<g>
			<path class="st0" d="M53.38,541.75c-1.03,0.84-2.01,1.64-2.01,1.64c0.04,0.05,0.1,0.08,0.16,0.12
				C52.2,542.87,52.81,542.3,53.38,541.75z"/>
			<path class="st0" d="M53.86,538.33c-0.21,0.17-0.42,0.34-0.63,0.52c0.11-0.02,0.15,0.01,0.22,0.02
				C53.57,538.7,53.7,538.53,53.86,538.33z"/>
			<path class="st0" d="M51.53,543.52c0.61,0.43,1.89,0.3,1.33,1.69c-1.11,0.91-3.33,2.72-4.45,3.63c-0.86,1.21,0.49,0.61,0.74,0.91
				c-1.11,0.91-2.22,1.81-2.1,1.97c-0.4,0.99,1.02,0.27,3.25-1.39C53.7,544.72,65.39,534.15,51.53,543.52z"/>
			<path class="st0" d="M59.4,535.06c-1.95,1.59-3.9,3.18-5.85,4.78c-0.32,0.84-0.86,1.87,0.01,1.73
				C56.38,538.84,57.99,537.04,59.4,535.06z"/>
			<path class="st0" d="M126.56,593.96c0.07,0.1,0.01,0.23-1.1,0.91C125.84,594.55,126.2,594.26,126.56,593.96
				c-0.06-0.1-0.22-0.17,0.23-0.64c-3.73,3.34-8.13,7.2-12.48,10.84c-0.44,0.63-0.86,1.24-1.23,1.82
				c10.8-8.98,21.68-17.87,29.93-25.96C136.71,585.17,132.6,588.97,126.56,593.96z"/>
			<path class="st0" d="M112.98,607.58c-0.38,0.31-0.73,0.6-1.1,0.91C112.99,607.82,113.05,607.69,112.98,607.58z"/>
			<path class="st0" d="M304.09,445.69c0.33-0.28,0.66-0.56,0.98-0.84c0.3-0.26,0.72-0.62,0.83-0.72c0.34-0.32,0.67-0.63,1-0.94
				c0.65-0.62,1.24-1.22,1.79-1.79c1.09-1.14,1.97-2.17,2.66-3.07c-0.8-0.36-1.59-0.72-2.39-1.09l1.98,1.11
				c-1.19,1.11-2.38,2.23-3.55,3.32c-0.64,0.59-1.28,1.18-1.91,1.76c-1.26,1.1-2.51,2.19-3.74,3.26
				c-5.25,4.57-10.14,8.88-14.3,12.71C292.97,454.85,298.51,450.29,304.09,445.69z"/>
			<path class="st0" d="M281.33,422.32c4.4,3.08,8.52,5.73,12.47,8.11c1.97,1.19,3.91,2.32,5.81,3.4c0.95,0.54,1.9,1.07,2.84,1.59
				l0.7,0.39c0.15,0.09,0.15,0.07,0.19,0.09l0.11,0.04l0.47,0.16l-0.42-0.24l-0.1-0.06l-0.2-0.12l-0.68-0.43l-2.73-1.7
				c-1.82-1.13-3.63-2.27-5.44-3.4c-3.62-2.26-7.23-4.52-10.83-6.78C282.79,423.04,282.03,422.66,281.33,422.32z"/>
			<path class="st0" d="M291.98,427.8c4.11,2.69,8,5.02,11.77,7.18c0.83,0.39,1.54,0.68,2.42,1.06c0.94,0.41,1.86,0.81,2.78,1.21
				c-0.93-0.51-1.86-1.01-2.78-1.51c-0.43-0.23-0.87-0.45-1.3-0.67c-0.48-0.25-0.59-0.26-1.79-0.98
				C299.26,431.86,295.54,429.74,291.98,427.8z"/>
			<path class="st0" d="M202.02,548.63c-4.64,4.53-7.52,7.2-9.2,8.65c-0.59,0.84-1.39,1.92-2.49,3.36c0.29-0.24,0.6-0.49,0.89-0.73
				c4.94-4.49,9.97-9.02,15.08-13.58c2.01-1.96,3.91-3.85,5.43-5.52C208.49,543.42,205.24,546.04,202.02,548.63z"/>
			<path class="st0" d="M192.82,557.28C197.85,550.15,186.24,562.97,192.82,557.28L192.82,557.28z"/>
			<path class="st0" d="M217.39,521.33c0.25-0.21,0.51-0.42,0.76-0.63c0.71-0.64,1.44-1.29,2.14-1.92
				C219.31,519.65,218.36,520.48,217.39,521.33z"/>
			<path class="st0" d="M282.81,475.02c-4.34,3.65-8.65,7.35-12.86,11.03c8.78-7.45,17.64-14.95,24.72-21.49
				c-1.11,0.9-2.35,1.67-3.46,2.57C289.24,469.26,286.16,472.28,282.81,475.02z"/>
			<path class="st0" d="M183.86,551.09c11.78-10.27,23.24-20.45,34.29-30.38c23.29-19.13,45.5-37.88,64.69-55.63
				c4.64-4.35,10.39-9.42,16.62-14.83c1.56-1.35,3.14-2.73,4.75-4.12l1.21-1.05l0.59-0.51l0.35-0.32c0.46-0.42,0.92-0.83,1.39-1.25
				c1.83-1.66,3.6-3.26,5.19-4.76c-1.82-1.04-3.57-2.03-5.21-2.91c-0.8-0.42-1.58-0.83-2.36-1.24l-0.56-0.28l-0.14-0.07l-0.26-0.15
				l-0.54-0.31c-0.72-0.41-1.43-0.81-2.14-1.22c-5.66-3.2-10.97-6.04-15.67-8.26c2.02,1.42,3.99,2.74,5.9,3.99
				c-2.97-1.62-5.8-3.09-8.47-4.41c-8.39-5.28-16.73-10.52-25.07-15.77c-4.16-2.64-8.32-5.27-12.49-7.91l-3.12-1.98l-1.56-0.99
				l-0.38-0.22l-1.23-0.71l-0.98,0.88l-0.24,0.21l-0.86,0.72l-2.61,2.17c-3.49,2.89-6.99,5.78-10.5,8.69
				c-7.04,5.78-14.13,11.6-21.28,17.48c-4.45,3.64-7.42,6.82-11.86,10.46c-4.48,3.71-8.89,7.36-13.28,10.99
				c0.01,0.05,0.09,0.04,0.24-0.03c-18.16,15.16-35.94,30.19-54.5,46.19c-8.77,7.42-17.8,14.55-26.69,21.81
				c-3.34,2.73-3.83,2.12-6.18,3.79c-9.51,6.51-16.68,11.36-26.93,19.23c0,0-0.25-0.3-0.37-0.45c-1.49,1.31-2.87,2.43-4.04,3.3
				c3.39-5.61,15.09-16.17,1.22-6.8l0-0.01c0.67-0.64,1.28-1.21,1.85-1.76c0.08-0.06,0.14-0.12,0.22-0.18
				c-0.01,0-0.02-0.01-0.03-0.01c2.82-2.73,4.42-4.53,5.83-6.51c-1.95,1.59-3.89,3.18-5.85,4.78c0.2-0.51,0.26-0.92-0.11-0.97
				c0.14-0.18,0.26-0.34,0.42-0.54c0.87-0.71,1.59-1.3,1.59-1.3c0.19-0.35,0.3-0.64,0.35-0.87c4.57-4.82,12.33-11.73,10.27-11.1
				c-1.45,0.65-4.95,3.98-9.03,7.63c-0.3,0.15-0.64,0.34-0.97,0.54c5.44-4.69-0.87-1.06,2.34-3.94c4.45-3.63,8.76-7.42,13.21-11.05
				c18.1-14.8,33.24-27.42,50.66-42.41c0.77-0.66,1.53-1.31,2.3-1.97c8.47-7.24,16.58-13.92,25.12-20.7
				c-0.45,0.54-0.94,1.1-1.44,1.67c6.87-5.45,13.7-10.98,20.32-16.77c16.18-14.24,32.36-28.47,50.03-43.16
				c3.63-3,7.24-5.99,10.77-8.91c5.39,3.44,10.74,6.85,16.08,10.26c4.31,2.71,8.61,5.41,12.93,8.12c8.64,5.4,17.35,10.8,26.28,16.28
				c-8.6-5.09-17.18-10.2-25.83-15.68c-3.84-2.53-7.67-5.04-11.42-7.43c3.83,2.57,7.63,5.03,11.42,7.43
				c14.78,9.73,29.89,19.85,42.31,25.76c1.21,0.98,0.82,0.96,2.72,2.2c6.91,4.5,13.69,8.99,20.4,13.27
				c-5.13,4.27-9.92,8.38-14.39,12.5c0.19,0.1-5.1,4.42-3.06,3.26c-3.53,2.97-7.35,6.19-11.17,9.41c-3.57,3.01-7.12,6.04-10.33,8.92
				c-2.81,2.46-5.45,5.1-8.04,7.82c-23.21,20.32-46.13,40.42-71.23,62.21c-6.27,5.37-13.64,11.4-20.1,16.68
				c9.1-8.28,18.57-16.72,28.22-25.23c9.75-7.78,19-15.34,25.98-22.35c1.66-1.59,3.31-3.16,4.98-4.75
				c-10.46,9.1-20.82,18.15-30.96,27.09c-5.76,4.6-11.68,9.27-17.42,13.94c0.11-0.11,0.21-0.2,0.32-0.31
				c4.35-3.86,8.73-7.74,13.14-11.66c8.67-6.92,16.94-13.66,23.57-20c0.83-0.79,1.64-1.58,2.41-2.35c1.66-1.58,3.32-3.16,4.97-4.74
				c-6.44,5.62-12.85,11.22-19.2,16.76c-3.93,3.45-7.86,6.9-11.76,10.33c-2.55,2.03-5.13,4.09-7.71,6.14
				c0.24-0.26,0.49-0.53,0.7-0.77c2.11-1.98,6.88-8.84,3.18-6.57c-8.54,7.01-18.67,15.61-26.68,22.43c-4,3.41-7.48,6.38-9.96,8.49
				c-1.24,1.05-2.24,1.89-2.92,2.46c-0.35,0.28-0.61,0.5-0.79,0.65c-0.18,0.14-0.28,0.21-0.29,0.21
				c-1.6,0.3,27.08-24.47,25.85-23.72c-1.69,1.28-3.38,2.57-5.07,3.85c1.46-1.4,2.88-2.77,4.17-4.06c3.21-2.88,7.78-6.36,9.76-8.48
				c7.04-7.27,16.18-14.24,24.58-22.11c5.2-5.01,11.36-11.06,17.54-17.11c-0.25-0.3,3.22-2.88,1.86-2.28
				c6.28-5.13,13.54-11.06,15.5-14.14l0.44-0.4c0.44-0.36,1.03-0.93,1.65-1.54c10.57-8.38,17.17-15.17,26.16-23.49
				c3.18-2.73,6.49-5.52,9.84-8.26c-2.17,1.77-5.67,4.38-7.76,6.34c-0.7,0.65-1.4,1.29-2.08,1.92c-8.28,7.1-15.98,14.07-23.74,20.95
				c-0.58,0.63-1.52,1.63-2.42,2.54c-0.59,0.46-1.18,0.92-1.77,1.39c-0.09,0.18-0.19,0.36-0.31,0.55
				c-7.32,6.71-15.88,13.96-22.05,19.75c-11.91,10.6-25.28,21.1-37.93,31.29c6.03-5.39,11.99-10.71,17.83-15.94
				c-7.36,6.49-14.31,12.6-21.05,18.54c-1.08,0.88-2.14,1.74-3.2,2.6l-6.68,5.46c2.12-1.64,4.23-3.27,6.32-4.89
				c-3.99,3.58-7.94,7.12-11.83,10.6c-21.72,18.93-44.43,38.1-67.19,56.31c0.29-0.55,0.65-1.14,1.06-1.79
				c10.81-8.98,21.68-17.87,29.92-25.95c-6.28,5.13-10.4,8.95-16.44,13.93c-0.07-0.09-0.23-0.17,0.23-0.64
				c-3.73,3.34-8.13,7.2-12.49,10.84c1.09-1.54,2.35-3.22,3.61-4.9c1.98-2.12,5.32-4.85,8.53-7.73
				c14.22-12.06,27.88-23.09,41.8-35.08c12.7-10.29,25.39-20.56,37.78-30.73C205.41,531.83,194.44,541.53,183.86,551.09z
				 M84.99,515.7c1.08-1,2.2-2.04,3.32-3.08c-0.21,0.11-0.42,0.22-0.61,0.33C86.62,513.83,85.67,514.84,84.99,515.7z M111.12,494.59
				c-7.85,5.98-17.61,14.54-27.14,22.71c-0.02,0.09-0.02,0.15,0.01,0.19C92.25,510.97,101.97,502.41,111.12,494.59z M144.19,472.81
				c-0.07,0.03-0.15,0.07-0.22,0.1c0.02,0.02,0.05,0.03,0.07,0.06C144.09,472.92,144.14,472.87,144.19,472.81z M274.93,410.42
				c-5.08-2.73-10.63-6.05-16.44-9.63c-2.9-1.8-5.87-3.65-8.88-5.52c-1.51-0.94-3.02-1.88-4.54-2.83l-1.77-1.08l-1.48-0.88
				c-0.84-0.55-1.69-0.98-2.53-1.37c-0.65,0.68-1.33,1.39-2.06,2.15c-0.35,0.35-0.7,0.7-1.07,1.05c-0.19,0.17-0.37,0.34-0.57,0.51
				c-0.21,0.18-0.33,0.29-0.75,0.63c-5.44,4.7-8.52,7.72-12.85,11.51l3.59-2.43c-7.91,6.21-11.62,10.76-19.65,16.81
				c0.12,0.15-0.74,1.36-1.85,2.27c-5.43,4.69-11.25,8.94-15.45,12.88c-5.44,4.69-10.99,9.23-15.19,13.17
				c-1.12,0.91-2.96,3.18-5.07,5.15c-2.67,2.26-5.35,4.53-8.02,6.79c0.16-0.05,0.3-0.11,0.43-0.15c2.21-1.8,4.44-3.65,6.6-5.58
				c6.43-5.76,13.96-12.42,20.51-18.02c16.44-13.94,31.51-27.27,46.58-40.59l1.03-0.93l0.26-0.23l0.13-0.12l0.06-0.06l0.24-0.25
				l1-1.05c0.68-0.72,1.41-1.48,2.18-2.24l0.84,0.44c0.75,0.37,1.55,0.79,2.38,1.25c0.44,0.25,0.89,0.5,1.34,0.75
				c0.73,0.44,1.47,0.88,2.2,1.33c2.93,1.79,5.89,3.58,8.73,5.31c5.68,3.44,10.96,6.53,14.94,8.3
				C271.1,408.39,273.51,409.96,274.93,410.42z M293.01,412.08c-13.14-7.57-27.4-16.41-39.29-24.35c-0.74-0.47-1.58-1.01-2.5-1.6
				c-1.01-0.64-2.11-1.33-3.28-2.06c-2.87-1.8-6.04-3.77-9.23-5.72c-1.66,1.45-3.35,2.92-5.02,4.38c-0.82,0.72-1.63,1.44-2.43,2.15
				c-0.4,0.35-0.79,0.7-1.18,1.05c-0.33,0.3-0.66,0.6-0.99,0.9c-2.34,2.16-4.49,4.22-6.19,5.96c-3.42,3.48-5.07,5.71-3.01,5.07
				c1.16-1.71,3.42-4.12,6.43-6.98c0.76-0.71,1.56-1.45,2.39-2.23c0.42-0.38,0.85-0.77,1.29-1.17c0.51-0.45,1.03-0.91,1.56-1.38
				c2.22-1.95,4.66-4.04,7.23-6.23c3.52,2.23,7.23,4.59,11.01,6.98c3.18,2.05,6.41,4.13,9.6,6.19c6.38,4.13,12.6,8.18,17.93,11.56
				C288,411.33,295.14,415.39,293.01,412.08z M265.44,495.97c4.46-4.04,8.79-7.94,14.08-12.27
				C274.83,487.79,270.14,491.88,265.44,495.97z M307.77,451.09c-13.59,12.87-29.03,25.74-42.99,38.16
				c-10.75,9.55-23.6,18.78-32.74,28.02l0.37,0.45l0.98-1.06c3.98-3.1,7.32-5.43,10.7-7.98c-0.18,0.16-0.36,0.34-0.54,0.51
				c0.32-0.28,0.64-0.55,0.97-0.83c2.25-1.71,4.53-3.54,7.05-5.79c1.14-1.05,2.3-2.11,3.47-3.18
				c13.68-11.63,27.83-23.58,39.64-34.83c3.71-3.41,7.07-6.66,10.44-9.92c1.69-1.62,3.37-3.25,5.09-4.9
				c1.89-1.75,3.81-3.54,5.8-5.39c-1.21,0.96-2.73,2.17-4.26,3.38c-0.74,0.6-1.48,1.21-2.19,1.78
				C308.91,450.06,308.3,450.59,307.77,451.09z"/>
			<path class="st0" d="M204.67,534.67c-4.67,4.1-9.36,8.23-14.1,12.39c-3.6,3.28-7.18,6.54-10.75,9.8
				c-17.19,15.4-38.26,32.17-57.14,48.2c-0.2,0.91,0.1,1.42,1.18,1.32c21.23-16.52,41.38-34.35,62.4-51.1
				c0.15-0.15,0.3-0.3,0.45-0.45c8.16-8.18,22.86-19.69,33.36-29.54c10.38-9.99,21.25-19.39,31.74-29.23
				C235.74,509.2,220.73,522.01,204.67,534.67z"/>
			<path class="st0" d="M303.92,436.11l4.26,2.4l-0.45,0.43c-0.9,0.9-1.77,1.77-2.62,2.62l-0.71,0.71l-0.2,0.2l-0.52,0.46
				l-1.05,0.92c-1.39,1.23-2.77,2.45-4.13,3.65c-5.47,4.85-10.77,9.6-16.12,14.43c4.06-3.37,8.14-6.76,12.23-10.15
				c3.74-3.07,7.49-6.16,11.25-9.25c1.74-1.55,3.06-2.99,3.88-4.11C307.41,437.36,305.44,436.62,303.92,436.11z"/>
			<path class="st0" d="M273.7,469.77c2.93-2.65,5.8-5.25,8.67-7.85c-12.03,10.02-23.91,20.04-35.76,30.05
				c-19.23,16.75-38.55,33.43-57.63,50.36c-2.19,1.9-4.36,3.79-6.51,5.66c36.88-29.85,73.64-59.61,103.25-87
				c0.54-0.5,1.15-1.06,1.72-1.59c-14.75,12.23-29.25,24.44-43.69,36.64C253.77,487.32,263.77,478.58,273.7,469.77z"/>
			<path class="st0" d="M209.18,530.69c-1.08,0.87-2.15,1.74-3.22,2.6c-1.2,1.07-2.38,2.12-3.56,3.17c0.76-0.6,1.52-1.2,2.27-1.79
				C206.18,533.34,207.68,532.01,209.18,530.69z"/>
			<path class="st0" d="M244.1,508.69c0.14-0.11,0.28-0.21,0.43-0.32c3.45-2.95,6.97-5.95,10.51-8.97
				c4.75-4.34,9.76-8.82,14.92-13.34C260.48,494.09,251.1,502.04,244.1,508.69z"/>
			<path class="st0" d="M277.89,487.13c1.11-0.91,3.33-2.72,4.45-3.64c0.6-0.64,1.2-1.28,1.8-1.93c-1.05,0.84-2.11,1.69-3.17,2.54
				L277.89,487.13z"/>
			<path class="st0" d="M310.39,421.66c8.62,5.37,17.1,10.65,24.72,15.39c-5.7,4.85-11.31,9.62-16.85,14.33
				c-1.38,1.18-2.76,2.35-4.14,3.52c-0.86,0.75-1.71,1.5-2.57,2.24c-1.71,1.49-3.4,2.97-5.09,4.44
				c-6.75,5.9-13.36,11.69-19.95,17.46c-0.79,0.84-1.59,1.68-2.38,2.52c6.18-4.98,12.29-10.01,18.18-15.05
				c2.94-2.52,5.83-5.05,8.64-7.57c1.47-1.33,2.92-2.64,4.36-3.95c2.32-2.06,4.62-4.1,6.9-6.11c1.76-1.57,3.86-3.53,5.9-5.42
				c2.05-1.9,4.07-3.73,5.85-5.19c0.5-0.41,0.99-0.83,1.48-1.23c-4.51-2.85-8.97-5.67-13.4-8.47c-2.19-1.36-4.36-2.72-6.53-4.07
				c-1.07-0.67-2.14-1.33-3.21-1.99l-2.13-1.28c-5.47-3.24-10.87-6.44-16.26-9.63c5.27,3.22,10.59,6.47,16.03,9.8
				C310.1,421.48,310.24,421.57,310.39,421.66z"/>
		</g>
		<g>
			<path class="st0" d="M17.02,448.74c-0.9,0.74-1.76,1.44-1.76,1.44c0.04,0.05,0.1,0.08,0.15,0.13
				C16,449.73,16.53,449.22,17.02,448.74z"/>
			<path class="st0" d="M17.26,445.52c-0.18,0.15-0.37,0.3-0.55,0.45c0.1-0.01,0.14,0.02,0.21,0.04
				C17.02,445.85,17.12,445.69,17.26,445.52z"/>
			<path class="st0" d="M15.42,450.31c0.59,0.45,1.77,0.4,1.33,1.69c-0.97,0.79-2.91,2.38-3.89,3.18c-0.72,1.1,0.49,0.61,0.74,0.91
				c-0.97,0.79-1.94,1.59-1.82,1.74c-0.31,0.92,0.96,0.32,2.92-1.12C17.5,451.58,27.67,442.25,15.42,450.31z"/>
			<path class="st0" d="M22.18,442.75c-1.7,1.39-3.41,2.79-5.12,4.18c-0.25,0.78-0.69,1.72,0.12,1.64
				C19.62,446.16,21,444.54,22.18,442.75z"/>
			<path class="st0" d="M53.39,531.03c0.07,0.09,0.03,0.21-0.96,0.8C52.76,531.55,53.07,531.3,53.39,531.03
				c-0.06-0.1-0.22-0.18,0.18-0.59c-3.25,2.94-7.08,6.34-10.88,9.53c-0.37,0.57-0.72,1.13-1.03,1.65
				c9.44-7.87,18.96-15.65,26.09-22.82C62.23,523.31,58.66,526.67,53.39,531.03z"/>
			<path class="st0" d="M41.66,543.14c-0.33,0.27-0.64,0.53-0.96,0.8C41.68,543.37,41.73,543.24,41.66,543.14z"/>
			<path class="st0" d="M208.51,401.08c2.88-2.47,5.51-4.88,8.01-7.28c1.24-1.21,2.46-2.4,3.68-3.58l0.9-0.89l0.23-0.22
				c0.07-0.07,0.16-0.16,0.18-0.18l0.19-0.23l0.7-0.89l-0.85,0.82l-0.25,0.24l-0.5,0.44l-1.01,0.89c-1.35,1.18-2.69,2.36-4.03,3.53
				c-2.68,2.34-5.32,4.65-7.89,6.89c-5.13,4.49-9.91,8.73-13.9,12.47C198.78,409.09,203.63,405.1,208.51,401.08z"/>
			<path class="st0" d="M217.32,380.61c0.7,0.49,1.39,0.97,2.06,1.44c0.16,0.13,0.32,0.24,0.47,0.35c0.32,0.22,0.64,0.41,0.99,0.6
				c0.7,0.37,1.53,0.71,2.56,1.12c-0.15,0.3-0.3,0.6-0.45,0.89c0.32-0.31,0.63-0.62,0.94-0.92c-0.78-0.43-1.56-0.86-2.34-1.29
				l-1.08-0.59l-0.52-0.28l-0.25-0.14c-0.11-0.06-0.06-0.02-0.47-0.28C218.61,381.21,217.93,380.9,217.32,380.61z"/>
			<path class="st0" d="M222.27,382.38c0.9,0.59,1.86,1.1,2.97,1.65c-0.89,1.06-1.68,2.25-2.86,3.77c1.47-1.44,2.73-2.75,3.59-3.81
				C224.61,383.32,223.36,382.78,222.27,382.38z"/>
			<path class="st0" d="M120.41,492.6c-4.02,4.01-6.52,6.38-7.98,7.66c-0.5,0.76-1.17,1.74-2.1,3.04c0.26-0.21,0.53-0.43,0.78-0.64
				c4.29-3.96,8.67-7.96,13.12-11.97c1.74-1.74,3.38-3.42,4.69-4.91C126.06,488.04,123.21,490.31,120.41,492.6z"/>
			<path class="st0" d="M112.42,500.25C116.64,493.79,106.69,505.26,112.42,500.25L112.42,500.25z"/>
			<path class="st0" d="M132.95,467.61c0.22-0.18,0.45-0.37,0.67-0.55c0.62-0.56,1.25-1.14,1.86-1.69
				C134.62,466.13,133.8,466.86,132.95,467.61z"/>
			<path class="st0" d="M190.63,427.63c-3.79,3.2-7.55,6.45-11.22,9.69c7.67-6.53,15.4-13.12,21.55-18.9
				c-0.97,0.79-2.07,1.44-3.04,2.23C196.22,422.55,193.56,425.23,190.63,427.63z"/>
			<path class="st0" d="M103.76,493.82c10.26-9.03,20.25-18,29.86-26.76c20.37-16.74,39.76-33.19,56.43-48.88
				c5.66-5.41,13.27-12.03,21.25-18.99c1.99-1.74,4.01-3.5,6.03-5.27l3.02-2.66l1.5-1.33c0.3-0.27,0.36-0.33,0.51-0.47l0.39-0.37
				c2.06-1.97,3.84-3.77,5.04-5.21c-2.94-1.43-5.43-2.43-7.18-2.74c0.56,0.47,1.1,0.86,1.66,1.23c-0.55-0.2-1.07-0.37-1.54-0.49
				c-0.23-0.06-0.46-0.11-0.67-0.15l-0.31-0.05l-0.15-0.02l-0.04,0l-0.11-0.05l-0.22-0.1c-11.64-7.25-23.16-14.48-34.7-21.78
				c-5.76-3.66-11.53-7.33-17.33-11.02c-2.89-1.85-5.79-3.71-8.7-5.57l-1.04-0.67l-0.2-0.12l-0.39-0.24l-0.77-0.47
				c-0.38,0.32-0.76,0.65-1.15,0.97c-2.14,1.76-4.31,3.53-6.48,5.3c-3.89,3.18-6.44,6.02-10.33,9.2c-3.92,3.25-7.77,6.45-11.61,9.63
				c0.01,0.05,0.09,0.04,0.22-0.01c-15.87,13.29-31.39,26.47-47.58,40.54c-7.66,6.51-15.58,12.73-23.35,19.08
				c-2.92,2.39-3.41,1.78-5.49,3.22c-8.4,5.6-14.73,9.77-23.73,16.62c0,0-0.25-0.3-0.37-0.45c-1.3,1.15-2.51,2.13-3.53,2.89
				c2.8-5.12,12.96-14.44,0.71-6.39l0,0c0.58-0.57,1.11-1.07,1.6-1.56c0.07-0.06,0.13-0.1,0.19-0.15c-0.01,0-0.02-0.01-0.03-0.01
				c2.44-2.42,3.81-4.03,5-5.82c-1.7,1.39-3.41,2.78-5.12,4.18c0.15-0.48,0.18-0.86-0.16-0.93c0.12-0.16,0.22-0.31,0.35-0.49
				c0.76-0.62,1.39-1.14,1.39-1.14c0.15-0.32,0.24-0.59,0.27-0.8c3.93-4.3,10.69-10.39,8.82-9.91c-1.3,0.53-4.34,3.47-7.88,6.69
				c-0.27,0.13-0.57,0.28-0.87,0.46c4.74-4.13-0.87-1.06,1.93-3.59c3.89-3.18,7.65-6.51,11.54-9.69
				c15.84-12.95,29.07-24.01,44.26-37.18c0.67-0.58,1.34-1.15,2.01-1.73c7.39-6.35,14.49-12.21,21.97-18.13
				c-0.39,0.49-0.8,0.99-1.23,1.49c6.02-4.76,12-9.59,17.77-14.69c4.48-3.98,8.97-7.95,13.49-11.96c2.27-1.99,4.54-3.99,6.83-6.01
				c3.17-2.71,6.35-5.44,9.56-8.19c3.92,2.46,7.89,4.93,11.89,7.44c3.03,1.91,6.09,3.84,9.19,5.8c8.87,5.68,17.6,11.21,26.41,16.7
				c4.41,2.73,8.83,5.47,13.28,8.23c4.69,2.88,9.42,5.79,14.22,8.73c-4-2.37-7.99-4.73-12.01-7.12c-3.77-2.26-7.55-4.56-11.34-6.95
				c-3.36-2.21-6.71-4.41-9.99-6.5c3.35,2.26,6.67,4.41,9.99,6.5c6.22,4.1,12.51,8.29,18.58,12.08c1.85,1.15,3.68,2.28,5.48,3.4
				c2.13,1.31,4.26,2.6,6.4,3.87c4.27,2.54,8.57,4.99,13.01,7.4c-0.47,0.47-0.9,0.91-1.32,1.33c-1.8,1.27-2.09,1.25-3.56,2.45
				c-5.18,4.23-10.37,8.41-15.31,12.51c-0.83,0.71-1.66,1.4-2.47,2.1c-0.78,0.68-1.55,1.36-2.31,2.03c-1.51,1.35-2.94,2.7-4.28,4.04
				c0.12,0.15-2.8,2.54-1.58,2.05c-5.71,4.92-12.53,10.49-18.11,15.56c-2.45,2.16-4.73,4.51-6.96,6.93
				c-20.22,17.88-40.2,35.57-62.07,54.73c-5.47,4.71-11.92,9.99-17.57,14.61c7.91-7.31,16.15-14.74,24.55-22.24
				c8.54-6.79,16.63-13.41,22.66-19.63c1.44-1.4,2.87-2.8,4.31-4.2c-9.11,8.01-18.15,15.96-26.97,23.84
				c-5.04,4.01-10.24,8.09-15.26,12.18c0.09-0.09,0.18-0.18,0.27-0.28c3.78-3.4,7.6-6.82,11.44-10.27
				c7.6-6.04,14.83-11.94,20.58-17.55c0.72-0.7,1.42-1.4,2.08-2.09c1.43-1.4,2.88-2.8,4.31-4.2c-5.61,4.95-11.2,9.87-16.74,14.75
				c-3.42,3.04-6.84,6.08-10.24,9.09c-2.23,1.77-4.5,3.57-6.75,5.36c0.2-0.23,0.42-0.48,0.6-0.69c1.83-1.75,5.82-7.98,2.54-6.05
				c-7.47,6.14-16.32,13.68-23.31,19.67c-3.5,3-6.53,5.6-8.69,7.45c-1.09,0.92-1.95,1.65-2.55,2.16c-0.6,0.5-0.93,0.76-0.95,0.74
				c-1.46,0.18,23.55-21.59,22.46-20.95c-1.49,1.12-2.97,2.24-4.45,3.35c1.26-1.24,2.5-2.46,3.61-3.6c2.79-2.53,6.81-5.56,8.51-7.46
				c6.06-6.47,14.1-12.53,21.38-19.49c4.5-4.44,9.83-9.81,15.17-15.18c-0.25-0.3,2.8-2.54,1.58-2.05
				c5.49-4.49,11.84-9.68,13.47-12.49l0.38-0.35c0.39-0.32,0.9-0.82,1.43-1.37c9.26-7.31,14.95-13.36,22.76-20.71
				c2.79-2.41,5.64-4.82,8.62-7.26c-1.95,1.59-4.99,3.82-6.81,5.57c-0.61,0.57-1.21,1.14-1.81,1.69
				c-7.22,6.23-13.92,12.38-20.67,18.45c-0.5,0.56-1.31,1.46-2.08,2.26c-0.52,0.4-1.03,0.81-1.55,1.21
				c-0.07,0.16-0.16,0.33-0.25,0.5c-6.36,5.92-13.83,12.29-19.19,17.41c-10.37,9.34-22.09,18.49-33.17,27.4
				c5.27-4.73,10.45-9.42,15.51-14.05c-6.41,5.71-12.46,11.09-18.33,16.32c-0.94,0.77-1.87,1.52-2.8,2.28l-5.84,4.77
				c1.86-1.43,3.71-2.85,5.55-4.26c-3.48,3.15-6.91,6.27-10.29,9.34c-18.93,16.65-38.76,33.47-58.69,49.37
				c0.24-0.5,0.53-1.05,0.87-1.63c9.44-7.87,18.96-15.64,26.09-22.82c-5.49,4.49-9.08,7.86-14.35,12.22
				c-0.07-0.09-0.22-0.17,0.18-0.59c-3.25,2.94-7.08,6.34-10.89,9.54c0.91-1.4,1.98-2.92,3.04-4.43c1.7-1.9,4.62-4.28,7.42-6.82
				c12.41-10.58,24.37-20.23,36.51-30.76c11.12-8.99,22.23-17.97,33.06-26.88C122.51,476.85,112.96,485.39,103.76,493.82z
				 M44.66,425.93c0.94-0.89,1.91-1.8,2.88-2.72c-0.19,0.09-0.37,0.18-0.55,0.27C46.06,424.25,45.24,425.15,44.66,425.93z
				 M67.54,407.48c-6.89,5.2-15.4,12.73-23.71,19.91c-0.01,0.08-0.01,0.15,0.02,0.18C51.09,421.88,59.56,414.35,67.54,407.48z
				 M96.79,388.82c-0.06,0.03-0.13,0.05-0.2,0.08c0.02,0.02,0.05,0.03,0.07,0.06C96.71,388.91,96.75,388.86,96.79,388.82z
				 M212.16,369.51c-8.95-4.67-19.49-11.53-30.22-18.06c-3.16-2.06-6.74-3.46-10.95-6.2c-2.69-1.63-4.87-2.88-6.92-4.05
				c-1.03-0.58-2.02-1.15-3.03-1.72l-0.76-0.44l-0.38-0.22l-0.22-0.12c-0.27-0.15-0.55-0.3-0.84-0.45l0.72,0.7
				c0.08,0.07,0.07,0.08,0.22,0.2l0.37,0.3l0.74,0.6c-0.43-0.29-0.85-0.57-1.26-0.84c-0.2-0.13-0.4-0.26-0.6-0.38
				c-0.39-0.24-0.77-0.46-1.13-0.66c-0.73-0.39-1.39-0.7-2.01-0.98c-0.65,0.68-1.24,1.32-1.87,1.91c-0.32,0.3-0.64,0.59-1,0.87
				c-0.33,0.26-0.67,0.53-1.02,0.81c-0.44,0.33-0.89,0.68-1.35,1.03c0.12,0.15-0.6,1.25-1.57,2.04c-4.74,4.12-9.86,7.8-13.5,11.28
				c-4.74,4.13-9.6,8.1-13.25,11.58c-0.98,0.8-2.54,2.84-4.37,4.58c-2.33,1.99-4.67,3.98-7.01,5.96c0.14-0.04,0.27-0.08,0.39-0.12
				c1.94-1.57,3.89-3.19,5.76-4.9c5.59-5.08,12.15-10.94,17.86-15.86c4.37-3.73,8.63-7.41,12.81-11.05
				c1.04-0.91,2.08-1.82,3.12-2.73l1.55-1.36l0.77-0.68l0.29-0.28c0.82-0.81,1.63-1.61,2.44-2.4c0.63,0.32,1.26,0.65,1.88,0.97
				l0.99,0.52l0.51,0.27l1.09,0.65c2.97,1.76,5.93,3.5,8.9,5.25c3.26,1.89,6.64,3.63,9.9,5.52c9.9,5.52,21.38,13.23,28.43,16.19
				C208.78,367.78,210.89,369.15,212.16,369.51z M228.99,370.36c-3.01-1.75-6.11-3.55-9.23-5.37c-2.96-1.75-5.93-3.54-8.86-5.35
				c-5.87-3.61-11.59-7.28-16.79-10.76c-8.43-5.49-33.27-20.28-30.34-15.57c6.38,1.61,23.79,12.93,39,22.79
				c7.61,4.93,14.66,9.49,19.51,12.28c1.21,0.7,2.29,1.29,3.2,1.74c0.46,0.23,0.87,0.42,1.24,0.58c0.47,0.23,0.89,0.41,1.25,0.55
				C229.41,371.81,229.94,371.64,228.99,370.36z M175.84,446.46c3.88-3.57,7.65-7,12.28-10.79
				C184.03,439.27,179.94,442.87,175.84,446.46z M212.25,406.42c-11.78,11.39-25.27,22.68-37.42,33.62
				c-9.36,8.41-20.68,16.39-28.57,24.61l0.37,0.45l0.85-0.94c3.49-2.7,6.44-4.71,9.41-6.92c-0.15,0.15-0.32,0.3-0.47,0.45
				c0.28-0.24,0.56-0.48,0.84-0.73c1.98-1.48,3.97-3.08,6.16-5.07c0.99-0.93,2-1.87,3.01-2.81c11.94-10.21,24.3-20.7,34.54-30.65
				c6.44-6.02,11.65-11.55,18.09-17.57C217.12,402.44,214.07,404.68,212.25,406.42z"/>
			<path class="st0" d="M122,479.51c-4.06,3.61-8.16,7.24-12.29,10.9c-3.13,2.9-6.24,5.77-9.34,8.65
				c-14.95,13.57-33.42,28.21-49.9,42.29c-0.13,0.85,0.18,1.35,1.17,1.33c18.62-14.39,36.17-30.09,54.58-44.72l0.39-0.4
				c7.05-7.27,19.94-17.31,29.05-26.01c8.98-8.86,18.47-17.11,27.57-25.82C149.18,457.21,136.08,468.46,122,479.51z"/>
			<path class="st0" d="M222.96,385.01l-1.55,1.49l-0.84,0.8l-0.22,0.21l-0.62,0.53l-1.42,1.22c-10.45,9.14-19.61,17.39-28.92,25.9
				c7.09-5.93,14.25-11.86,21.5-17.78c3.56-3.05,6.73-6.02,9.76-8.97c0.24-0.23,0.26-0.27,0.33-0.36l0.18-0.24l0.34-0.47
				c0.22-0.31,0.41-0.6,0.59-0.87C222.46,385.93,222.74,385.44,222.96,385.01z"/>
			<path class="st0" d="M181.88,422.09c2.55-2.34,5.04-4.63,7.53-6.92c-10.51,8.79-20.89,17.57-31.23,26.35
				c-16.77,14.73-33.61,29.39-50.22,44.3c-1.91,1.67-3.8,3.33-5.68,4.98c32.28-26.1,64.46-52.11,90.18-76.31
				c0.47-0.44,1-0.94,1.5-1.41c-12.9,10.71-25.56,21.43-38.17,32.13C164.51,437.54,173.23,429.85,181.88,422.09z"/>
			<path class="st0" d="M125.93,476c-0.95,0.76-1.88,1.52-2.82,2.28c-1.04,0.94-2.07,1.87-3.1,2.79c0.67-0.52,1.33-1.04,1.99-1.56
				C123.32,478.33,124.63,477.16,125.93,476z"/>
			<path class="st0" d="M156.88,457.24c0.12-0.09,0.25-0.19,0.38-0.28c3.01-2.59,6.08-5.22,9.17-7.88
				c4.13-3.83,8.48-7.78,12.98-11.76C171.13,444.37,162.95,451.36,156.88,457.24z"/>
			<path class="st0" d="M186.81,438.83c0.97-0.8,2.91-2.38,3.89-3.18c0.52-0.58,1.03-1.14,1.55-1.72c-0.92,0.73-1.85,1.48-2.77,2.22
				L186.81,438.83z"/>
			<path class="st0" d="M248.89,384.01c-6.44,5.51-12.78,10.94-19.04,16.3c-4.06,3.58-8.08,7.11-12.06,10.61
				c-7.94,7.01-15.74,13.9-23.5,20.75l-2.05,2.25c10.83-8.69,21.36-17.63,30.54-26.52c1.82-1.74,4.37-4.58,6.31-6.17
				c3.65-3.09,7.26-6.14,10.83-9.16c3.69-3.17,7.34-6.32,10.96-9.44c-6.99-4.25-13.89-8.45-20.79-12.64
				c6.69,4.16,13.45,8.37,20.36,12.66c-0.34,0.29-0.69,0.59-1.04,0.89C249.24,383.71,249.07,383.86,248.89,384.01z"/>
		</g>
	</g>
</g>
</svg>
